<?xml version="1.0" encoding="utf-8"?>
<svg width="300px" height="240px" viewBox="0 0 300 240" version="1.1" xmlns:xlink="http://www.w3.org/1999/xlink" xmlns="http://www.w3.org/2000/svg">
  <defs>
    <rect width="300" height="240" id="artboard_1" />
    <clipPath id="clip_1">
      <use xlink:href="#artboard_1" clip-rule="evenodd" />
    </clipPath>
  </defs>
  <g id="Artboard-3" clip-path="url(#clip_1)">
    <g id="Group" transform="translate(20.930176 9)">
      <path d="M0 0L99.0698 0L99.0698 25.9194L0 25.9194L0 0Z" id="Rectangle" fill="#D3D3D3" fill-rule="evenodd" stroke="none" />
      <g id="Component" transform="translate(11.034912 4.246582)">
        <path d="M9.42614 6.59091L8.19318 6.59091Q8.04403 5.88494 7.62145 5.4027Q7.19886 4.92045 6.60227 4.67188Q6.00568 4.4233 5.32955 4.4233Q4.40483 4.4233 3.65661 4.89063Q2.90838 5.35795 2.46839 6.26776Q2.02841 7.17756 2.02841 8.5Q2.02841 9.82244 2.46839 10.7322Q2.90838 11.642 3.65661 12.1094Q4.40483 12.5767 5.32955 12.5767Q6.00568 12.5767 6.60227 12.3281Q7.19886 12.0795 7.62145 11.5973Q8.04403 11.1151 8.19318 10.4091L9.42614 10.4091Q9.23722 11.4531 8.65554 12.1964Q8.07386 12.9396 7.21378 13.3349Q6.35369 13.7301 5.32955 13.7301Q4.02699 13.7301 3.01278 13.0938Q1.99858 12.4574 1.4169 11.2841Q0.835227 10.1108 0.835227 8.5Q0.835227 6.8892 1.4169 5.71591Q1.99858 4.54261 3.01278 3.90625Q4.02699 3.26989 5.32955 3.26989Q6.35369 3.26989 7.21378 3.66513Q8.07386 4.06037 8.65554 4.80362Q9.23722 5.54688 9.42614 6.59091ZM76.5227 6.94886L76.5227 5.95455L74.892 5.95455L74.892 4.125L73.7188 4.125L73.7188 5.95455L72.5653 5.95455L72.5653 6.94886L73.7188 6.94886L73.7188 11.7216Q73.7188 12.3878 74.0295 12.8253Q74.3402 13.2628 74.815 13.4766Q75.2898 13.6903 75.7869 13.6903Q76.1151 13.6903 76.3288 13.6431Q76.5426 13.5959 76.6619 13.5511L76.4233 12.4972Q76.3487 12.5121 76.2244 12.5344Q76.1001 12.5568 75.9063 12.5568Q75.6477 12.5568 75.4165 12.4748Q75.1854 12.3928 75.0387 12.1467Q74.892 11.9006 74.892 11.4034L74.892 6.94886L76.5227 6.94886ZM14.358 13.75Q13.3239 13.75 12.5458 13.2578Q11.7678 12.7656 11.3327 11.8807Q10.8977 10.9957 10.8977 9.8125Q10.8977 8.61932 11.3327 7.7294Q11.7678 6.83949 12.5458 6.3473Q13.3239 5.85511 14.358 5.85511Q15.392 5.85511 16.1701 6.3473Q16.9482 6.83949 17.3832 7.7294Q17.8182 8.61932 17.8182 9.8125Q17.8182 10.9957 17.3832 11.8807Q16.9482 12.7656 16.1701 13.2578Q15.392 13.75 14.358 13.75ZM19.608 5.95455L19.608 13.5909L20.7813 13.5909L20.7813 8.81818Q20.7813 8.25639 21.0224 7.82635Q21.2635 7.39631 21.6587 7.1527Q22.054 6.90909 22.5114 6.90909Q23.1776 6.90909 23.6001 7.3093Q24.0227 7.70952 24.0227 8.3608L24.0227 13.5909L25.2159 13.5909L25.2159 8.61932Q25.2159 7.87855 25.6584 7.39382Q26.1009 6.90909 26.9063 6.90909Q27.5327 6.90909 27.995 7.27202Q28.4574 7.63494 28.4574 8.48011L28.4574 13.5909L29.6307 13.5909L29.6307 8.48011Q29.6307 7.13281 28.9794 6.49396Q28.3281 5.85511 27.304 5.85511Q26.4837 5.85511 25.897 6.20561Q25.3104 6.55611 25.017 7.14773L24.9375 7.14773Q24.6541 6.53622 24.1495 6.19567Q23.6449 5.85511 22.8892 5.85511Q22.1435 5.85511 21.6115 6.19567Q21.0795 6.53622 20.8409 7.14773L20.7415 7.14773L20.7415 5.95455L19.608 5.95455ZM31.7784 16.4545L31.7784 5.95455L32.9119 5.95455L32.9119 7.16761L33.0511 7.16761Q33.1804 6.96875 33.4116 6.65803Q33.6428 6.3473 34.0778 6.10121Q34.5128 5.85511 35.2585 5.85511Q36.223 5.85511 36.9588 6.33736Q37.6946 6.8196 38.1072 7.70455Q38.5199 8.58949 38.5199 9.79261Q38.5199 11.0057 38.1072 11.8931Q37.6946 12.7805 36.9638 13.2653Q36.233 13.75 35.2784 13.75Q34.5426 13.75 34.1001 13.5039Q33.6577 13.2578 33.419 12.9421Q33.1804 12.6264 33.0511 12.4176L32.9517 12.4176L32.9517 16.4545L31.7784 16.4545ZM41.5998 13.2578Q42.3778 13.75 43.4119 13.75Q44.446 13.75 45.2241 13.2578Q46.0021 12.7656 46.4371 11.8807Q46.8722 10.9957 46.8722 9.8125Q46.8722 8.61932 46.4371 7.7294Q46.0021 6.83949 45.2241 6.3473Q44.446 5.85511 43.4119 5.85511Q42.3778 5.85511 41.5998 6.3473Q40.8217 6.83949 40.3867 7.7294Q39.9517 8.61932 39.9517 9.8125Q39.9517 10.9957 40.3867 11.8807Q40.8217 12.7656 41.5998 13.2578ZM49.8352 8.99716L49.8352 13.5909L48.6619 13.5909L48.6619 5.95455L49.7955 5.95455L49.7955 7.14773L49.8949 7.14773Q50.1634 6.56605 50.7102 6.21058Q51.2571 5.85511 52.1222 5.85511Q53.2805 5.85511 53.994 6.56605Q54.7074 7.27699 54.7074 8.73864L54.7074 13.5909L53.5341 13.5909L53.5341 8.81818Q53.5341 7.91832 53.0668 7.41371Q52.5994 6.90909 51.7841 6.90909Q50.9439 6.90909 50.3896 7.45348Q49.8352 7.99787 49.8352 8.99716ZM58.1552 13.2603Q58.9531 13.75 60.0568 13.75Q61.2202 13.75 62.0256 13.218Q62.831 12.6861 63.0994 11.821L61.9659 11.5028Q61.7422 12.0994 61.245 12.3977Q60.7479 12.696 60.0568 12.696Q59.0227 12.696 58.369 12.0447Q57.7152 11.3935 57.6754 10.1705L63.2188 10.1705L63.2188 9.6733Q63.2188 8.6044 62.9354 7.87358Q62.652 7.14276 62.1747 6.6978Q61.6974 6.25284 61.1158 6.05398Q60.5341 5.85511 59.9375 5.85511Q58.9034 5.85511 58.1303 6.35973Q57.3572 6.86435 56.9272 7.76172Q56.4972 8.65909 56.4972 9.83239Q56.4972 11.0057 56.9272 11.8881Q57.3572 12.7706 58.1552 13.2603ZM66.1818 8.99716L66.1818 13.5909L65.0085 13.5909L65.0085 5.95455L66.142 5.95455L66.142 7.14773L66.2415 7.14773Q66.5099 6.56605 67.0568 6.21058Q67.6037 5.85511 68.4688 5.85511Q69.6271 5.85511 70.3406 6.56605Q71.054 7.27699 71.054 8.73864L71.054 13.5909L69.8807 13.5909L69.8807 8.81818Q69.8807 7.91832 69.4134 7.41371Q68.946 6.90909 68.1307 6.90909Q67.2905 6.90909 66.7362 7.45348Q66.1818 7.99787 66.1818 8.99716ZM14.358 12.696Q15.1435 12.696 15.6506 12.2933Q16.1577 11.8906 16.4013 11.2344Q16.6449 10.5781 16.6449 9.8125Q16.6449 9.04688 16.4013 8.38565Q16.1577 7.72443 15.6506 7.31676Q15.1435 6.90909 14.358 6.90909Q13.5724 6.90909 13.0653 7.31676Q12.5582 7.72443 12.3146 8.38565Q12.071 9.04688 12.071 9.8125Q12.071 10.5781 12.3146 11.2344Q12.5582 11.8906 13.0653 12.2933Q13.5724 12.696 14.358 12.696ZM32.9318 9.77273Q32.9318 11.0703 33.4961 11.8832Q34.0604 12.696 35.1193 12.696Q35.8551 12.696 36.3498 12.3058Q36.8445 11.9155 37.0955 11.2518Q37.3466 10.5881 37.3466 9.77273Q37.3466 8.96733 37.1005 8.31854Q36.8544 7.66974 36.3597 7.28942Q35.8651 6.90909 35.1193 6.90909Q34.0455 6.90909 33.4886 7.69957Q32.9318 8.49006 32.9318 9.77273ZM44.7045 12.2933Q44.1974 12.696 43.4119 12.696Q42.6264 12.696 42.1193 12.2933Q41.6122 11.8906 41.3686 11.2344Q41.125 10.5781 41.125 9.8125Q41.125 9.04688 41.3686 8.38565Q41.6122 7.72443 42.1193 7.31676Q42.6264 6.90909 43.4119 6.90909Q44.1974 6.90909 44.7045 7.31676Q45.2117 7.72443 45.4553 8.38565Q45.6989 9.04688 45.6989 9.8125Q45.6989 10.5781 45.4553 11.2344Q45.2117 11.8906 44.7045 12.2933ZM62.0256 9.15625L57.6754 9.15625Q57.7152 8.56463 57.9986 8.05007Q58.282 7.53551 58.7741 7.2223Q59.2663 6.90909 59.9375 6.90909Q60.892 6.90909 61.4588 7.54794Q62.0256 8.18679 62.0256 9.15625Z" />
      </g>
    </g>
    <path d="M0 0L66 0" transform="translate(133.5 21)" id="Arrow" fill="none" fill-rule="evenodd" stroke="#808080" stroke-width="1" />
    <g id="react-element" fill="#212121" transform="translate(134.5 9)">
      <path d="M27.7159 2.09091L27.7159 7.90909L27.0455 7.90909L27.0455 2.09091L27.7159 2.09091ZM19.125 3.54545L19.125 4.11364L18.1932 4.11364L18.1932 6.65909Q18.1932 6.94318 18.277 7.08381Q18.3608 7.22443 18.4929 7.27131Q18.625 7.31818 18.7727 7.31818Q18.8835 7.31818 18.9545 7.3054Q19.0256 7.29261 19.0682 7.28409L19.2045 7.88636Q19.1364 7.91193 19.0142 7.93892Q18.892 7.96591 18.7045 7.96591Q18.4205 7.96591 18.1491 7.84375Q17.8778 7.72159 17.7003 7.47159Q17.5227 7.22159 17.5227 6.84091L17.5227 4.11364L16.8636 4.11364L16.8636 3.54545L17.5227 3.54545L17.5227 2.5L18.1932 2.5L18.1932 3.54545L19.125 3.54545ZM51.7955 4.11364L51.7955 3.54545L50.8636 3.54545L50.8636 2.5L50.1932 2.5L50.1932 3.54545L49.5341 3.54545L49.5341 4.11364L50.1932 4.11364L50.1932 6.84091Q50.1932 7.22159 50.3707 7.47159Q50.5483 7.72159 50.8196 7.84375Q51.0909 7.96591 51.375 7.96591Q51.5625 7.96591 51.6847 7.93892Q51.8068 7.91193 51.875 7.88636L51.7386 7.28409Q51.696 7.29261 51.625 7.3054Q51.554 7.31818 51.4432 7.31818Q51.2955 7.31818 51.1634 7.27131Q51.0313 7.22443 50.9474 7.08381Q50.8636 6.94318 50.8636 6.65909L50.8636 4.11364L51.7955 4.11364ZM0.613636 3.54545L0.613636 7.90909L1.28409 7.90909L1.28409 5.14773Q1.28409 4.70455 1.59659 4.41477Q1.90909 4.125 2.38636 4.125Q2.51989 4.125 2.64063 4.14347Q2.76136 4.16193 2.79545 4.17045L2.79545 3.48864Q2.73864 3.48295 2.62784 3.48011Q2.51705 3.47727 2.44318 3.47727Q2.05114 3.47727 1.73864 3.67898Q1.42614 3.88068 1.30682 4.20455L1.26136 4.20455L1.26136 3.54545L0.613636 3.54545ZM4.33381 7.72017Q4.78977 8 5.42045 8Q6.08523 8 6.54545 7.69602Q7.00568 7.39205 7.15909 6.89773L6.51136 6.71591Q6.38352 7.05682 6.09943 7.22727Q5.81534 7.39773 5.42045 7.39773Q4.82955 7.39773 4.45597 7.02557Q4.08239 6.65341 4.05966 5.95455L7.22727 5.95455L7.22727 5.67045Q7.22727 5.05966 7.06534 4.64205Q6.90341 4.22443 6.63068 3.97017Q6.35795 3.71591 6.02557 3.60227Q5.69318 3.48864 5.35227 3.48864Q4.76136 3.48864 4.3196 3.77699Q3.87784 4.06534 3.6321 4.57813Q3.38636 5.09091 3.38636 5.76136Q3.38636 6.43182 3.6321 6.93608Q3.87784 7.44034 4.33381 7.72017ZM9.53409 8.01136Q9.11932 8.01136 8.78125 7.85369Q8.44318 7.69602 8.24432 7.39631Q8.04545 7.09659 8.04545 6.67045Q8.04545 6.29545 8.19318 6.06108Q8.34091 5.8267 8.58807 5.69318Q8.83523 5.55966 9.13494 5.4929Q9.43466 5.42614 9.73864 5.38636Q10.1364 5.33523 10.3849 5.30824Q10.6335 5.28125 10.7486 5.21591Q10.8636 5.15057 10.8636 4.98864L10.8636 4.96591Q10.8636 4.54545 10.6349 4.3125Q10.4063 4.07955 9.94318 4.07955Q9.46307 4.07955 9.19034 4.28977Q8.91761 4.5 8.80682 4.73864L8.17045 4.51136Q8.34091 4.11364 8.62642 3.89063Q8.91193 3.66761 9.25142 3.57813Q9.59091 3.48864 9.92045 3.48864Q10.1307 3.48864 10.4048 3.53835Q10.679 3.58807 10.9361 3.74148Q11.1932 3.89489 11.3636 4.20455Q11.5341 4.5142 11.5341 5.03409L11.5341 7.90909L10.8636 7.90909L10.8636 7.31818L10.8295 7.31818Q10.7614 7.46023 10.6023 7.62216Q10.4432 7.78409 10.179 7.89773Q9.91477 8.01136 9.53409 8.01136ZM13.4773 7.71023Q13.9205 8 14.5341 8Q15.017 8 15.3821 7.8196Q15.7472 7.6392 15.9702 7.33097Q16.1932 7.02273 16.25 6.63636L15.5795 6.63636Q15.4858 6.99432 15.206 7.19602Q14.9261 7.39773 14.5341 7.39773Q13.9375 7.39773 13.5824 6.94176Q13.2273 6.4858 13.2273 5.72727Q13.2273 4.9858 13.5866 4.53835Q13.946 4.09091 14.5341 4.09091Q14.9773 4.09091 15.2401 4.32244Q15.5028 4.55398 15.5795 4.85227L16.25 4.85227Q16.1932 4.44318 15.9574 4.13636Q15.7216 3.82955 15.3523 3.65909Q14.983 3.48864 14.5227 3.48864Q13.9318 3.48864 13.4901 3.77699Q13.0483 4.06534 12.8026 4.57528Q12.5568 5.08523 12.5568 5.75Q12.5568 6.40341 12.7955 6.91193Q13.0341 7.42045 13.4773 7.71023ZM23.1293 7.72017Q23.5852 8 24.2159 8Q24.8807 8 25.3409 7.69602Q25.8011 7.39205 25.9545 6.89773L25.3068 6.71591Q25.179 7.05682 24.8949 7.22727Q24.6108 7.39773 24.2159 7.39773Q23.625 7.39773 23.2514 7.02557Q22.8778 6.65341 22.8551 5.95455L26.0227 5.95455L26.0227 5.67045Q26.0227 5.05966 25.8608 4.64205Q25.6989 4.22443 25.4261 3.97017Q25.1534 3.71591 24.821 3.60227Q24.4886 3.48864 24.1477 3.48864Q23.5568 3.48864 23.1151 3.77699Q22.6733 4.06534 22.4276 4.57813Q22.1818 5.09091 22.1818 5.76136Q22.1818 6.43182 22.4276 6.93608Q22.6733 7.44034 23.1293 7.72017ZM29.6861 7.72017Q30.142 8 30.7727 8Q31.4375 8 31.8977 7.69602Q32.358 7.39205 32.5114 6.89773L31.8636 6.71591Q31.7358 7.05682 31.4517 7.22727Q31.1676 7.39773 30.7727 7.39773Q30.1818 7.39773 29.8082 7.02557Q29.4347 6.65341 29.4119 5.95455L32.5795 5.95455L32.5795 5.67045Q32.5795 5.05966 32.4176 4.64205Q32.2557 4.22443 31.983 3.97017Q31.7102 3.71591 31.3778 3.60227Q31.0455 3.48864 30.7045 3.48864Q30.1136 3.48864 29.6719 3.77699Q29.2301 4.06534 28.9844 4.57813Q28.7386 5.09091 28.7386 5.76136Q28.7386 6.43182 28.9844 6.93608Q29.2301 7.44034 29.6861 7.72017ZM33.6023 3.54545L34.25 3.54545L34.25 4.22727L34.3068 4.22727Q34.4432 3.87784 34.7472 3.68324Q35.0511 3.48864 35.4773 3.48864Q35.9091 3.48864 36.1974 3.68324Q36.4858 3.87784 36.6477 4.22727L36.6932 4.22727Q36.8608 3.8892 37.196 3.68892Q37.5313 3.48864 38 3.48864Q38.5852 3.48864 38.9574 3.85369Q39.3295 4.21875 39.3295 4.98864L39.3295 7.90909L38.6591 7.90909L38.6591 4.98864Q38.6591 4.50568 38.3949 4.2983Q38.1307 4.09091 37.7727 4.09091Q37.3125 4.09091 37.0597 4.3679Q36.8068 4.64489 36.8068 5.06818L36.8068 7.90909L36.125 7.90909L36.125 4.92045Q36.125 4.5483 35.8835 4.3196Q35.642 4.09091 35.2614 4.09091Q35 4.09091 34.7742 4.23011Q34.5483 4.36932 34.4105 4.61506Q34.2727 4.8608 34.2727 5.18182L34.2727 7.90909L33.6023 7.90909L33.6023 3.54545ZM41.2997 7.72017Q41.7557 8 42.3864 8Q43.0511 8 43.5114 7.69602Q43.9716 7.39205 44.125 6.89773L43.4773 6.71591Q43.3494 7.05682 43.0653 7.22727Q42.7813 7.39773 42.3864 7.39773Q41.7955 7.39773 41.4219 7.02557Q41.0483 6.65341 41.0256 5.95455L44.1932 5.95455L44.1932 5.67045Q44.1932 5.05966 44.0313 4.64205Q43.8693 4.22443 43.5966 3.97017Q43.3239 3.71591 42.9915 3.60227Q42.6591 3.48864 42.3182 3.48864Q41.7273 3.48864 41.2855 3.77699Q40.8438 4.06534 40.598 4.57813Q40.3523 5.09091 40.3523 5.76136Q40.3523 6.43182 40.598 6.93608Q40.8438 7.44034 41.2997 7.72017ZM45.8864 5.28409L45.8864 7.90909L45.2159 7.90909L45.2159 3.54545L45.8636 3.54545L45.8636 4.22727L45.9205 4.22727Q46.0739 3.89489 46.3864 3.69176Q46.6989 3.48864 47.1932 3.48864Q47.8551 3.48864 48.2628 3.89489Q48.6705 4.30114 48.6705 5.13636L48.6705 7.90909L48 7.90909L48 5.18182Q48 4.66761 47.733 4.37926Q47.4659 4.09091 47 4.09091Q46.5199 4.09091 46.2031 4.40199Q45.8864 4.71307 45.8864 5.28409ZM6.54545 5.375L4.05966 5.375Q4.08239 5.03693 4.24432 4.7429Q4.40625 4.44886 4.6875 4.26989Q4.96875 4.09091 5.35227 4.09091Q5.89773 4.09091 6.22159 4.45597Q6.54545 4.82102 6.54545 5.375ZM25.3409 5.375L22.8551 5.375Q22.8778 5.03693 23.0398 4.7429Q23.2017 4.44886 23.483 4.26989Q23.7642 4.09091 24.1477 4.09091Q24.6932 4.09091 25.017 4.45597Q25.3409 4.82102 25.3409 5.375ZM31.8977 5.375L29.4119 5.375Q29.4347 5.03693 29.5966 4.7429Q29.7585 4.44886 30.0398 4.26989Q30.321 4.09091 30.7045 4.09091Q31.25 4.09091 31.5739 4.45597Q31.8977 4.82102 31.8977 5.375ZM43.5114 5.375L41.0256 5.375Q41.0483 5.03693 41.2102 4.7429Q41.3722 4.44886 41.6534 4.26989Q41.9347 4.09091 42.3182 4.09091Q42.8636 4.09091 43.1875 4.45597Q43.5114 4.82102 43.5114 5.375ZM9.63636 7.40909Q10.0341 7.40909 10.3082 7.25284Q10.5824 7.09659 10.723 6.84943Q10.8636 6.60227 10.8636 6.32955L10.8636 5.71591Q10.821 5.76705 10.6776 5.80824Q10.5341 5.84943 10.348 5.87926Q10.1619 5.90909 9.98722 5.9304Q9.8125 5.9517 9.70455 5.96591Q9.44318 6 9.21733 6.07528Q8.99148 6.15057 8.85369 6.29972Q8.71591 6.44886 8.71591 6.70455Q8.71591 7.05398 8.97585 7.23153Q9.2358 7.40909 9.63636 7.40909Z" />
    </g>
    <g id="Group-Copy" transform="translate(214 10.980469)">
      <path d="M0 0L48.2191 0L48.2191 21.9194L0 21.9194L0 0Z" id="Rectangle" fill="#D3D3D3" fill-rule="evenodd" stroke="none" />
      <g id="DOM" fill="#BF360C" transform="translate(7.965088 2.246582)">
        <path d="M19.8864 8.5Q19.8864 10.1108 19.3047 11.2841Q18.723 12.4574 17.7088 13.0938Q16.6946 13.7301 15.392 13.7301Q14.0895 13.7301 13.0753 13.0938Q12.0611 12.4574 11.4794 11.2841Q10.8977 10.1108 10.8977 8.5Q10.8977 6.8892 11.4794 5.71591Q12.0611 4.54261 13.0753 3.90625Q14.0895 3.26989 15.392 3.26989Q16.6946 3.26989 17.7088 3.90625Q18.723 4.54261 19.3047 5.71591Q19.8864 6.8892 19.8864 8.5ZM4.375 13.5909L1.23295 13.5909L1.23295 3.40909L4.5142 3.40909Q5.99574 3.40909 7.04972 4.01811Q8.10369 4.62713 8.66548 5.76314Q9.22727 6.89915 9.22727 8.48011Q9.22727 10.071 8.66051 11.217Q8.09375 12.3629 7.00994 12.9769Q5.92614 13.5909 4.375 13.5909ZM23.4261 3.40909L21.9545 3.40909L21.9545 13.5909L23.108 13.5909L23.108 5.85511L23.2074 5.85511L26.3892 13.5909L27.5028 13.5909L30.6847 5.85511L30.7841 5.85511L30.7841 13.5909L31.9375 13.5909L31.9375 3.40909L30.4659 3.40909L27.0057 11.8608L26.8864 11.8608L23.4261 3.40909ZM18.6932 8.5Q18.6932 7.17756 18.2532 6.26776Q17.8132 5.35795 17.065 4.89063Q16.3168 4.4233 15.392 4.4233Q14.4673 4.4233 13.7191 4.89063Q12.9709 5.35795 12.5309 6.26776Q12.0909 7.17756 12.0909 8.5Q12.0909 9.82244 12.5309 10.7322Q12.9709 11.642 13.7191 12.1094Q14.4673 12.5767 15.392 12.5767Q16.3168 12.5767 17.065 12.1094Q17.8132 11.642 18.2532 10.7322Q18.6932 9.82244 18.6932 8.5ZM2.46591 12.4972L4.29545 12.4972Q6.18963 12.4972 7.11186 11.4208Q8.03409 10.3445 8.03409 8.48011Q8.03409 6.63068 7.12926 5.56676Q6.22443 4.50284 4.43466 4.50284L2.46591 4.50284L2.46591 12.4972Z" />
      </g>
    </g>
    <path d="M0 0L178.6 0L178.6 181L0 181L0 0Z" transform="translate(20.900024 49)" id="Rectangle" fill="#D3D3D3" fill-rule="evenodd" stroke="none" />
    <path d="M0 0L76 0L76 181L0 181L0 0Z" transform="translate(214 49)" id="Rectangle-2" fill="#D3D3D3" fill-rule="evenodd" stroke="none" />
    <g id="Render-phase" fill="#212121" transform="translate(21.800049 49)">
      <path d="M8.07386 7.90909L8.07386 2.09091L10.0398 2.09091Q10.7216 2.09091 11.1591 2.32244Q11.5966 2.55398 11.8068 2.95739Q12.017 3.3608 12.017 3.875Q12.017 4.45455 11.7514 4.88494Q11.4858 5.31534 10.929 5.50568L12.2443 7.90909L11.4261 7.90909L10.1989 5.63352Q10.1278 5.63636 10.0511 5.63636L8.77841 5.63636L8.77841 7.90909L8.07386 7.90909ZM24.0852 8Q23.5398 8 23.1222 7.72301Q22.7045 7.44602 22.4688 6.93892Q22.233 6.43182 22.233 5.73864Q22.233 5.05114 22.4688 4.54545Q22.7045 4.03977 23.125 3.7642Q23.5455 3.48864 24.0966 3.48864Q24.5227 3.48864 24.7713 3.62926Q25.0199 3.76989 25.152 3.94744Q25.2841 4.125 25.358 4.23864L25.4148 4.23864L25.4148 2.09091L26.0852 2.09091L26.0852 7.90909L25.4375 7.90909L25.4375 7.23864L25.358 7.23864Q25.2841 7.35795 25.1477 7.53835Q25.0114 7.71875 24.7585 7.85938Q24.5057 8 24.0852 8ZM42.8352 5.28409L42.8352 7.90909L42.1648 7.90909L42.1648 2.09091L42.8352 2.09091L42.8352 4.22727L42.892 4.22727Q43.0455 3.8892 43.3537 3.68892Q43.6619 3.48864 44.1761 3.48864Q44.8466 3.48864 45.2557 3.89205Q45.6648 4.29545 45.6648 5.13636L45.6648 7.90909L44.9943 7.90909L44.9943 5.18182Q44.9943 4.66193 44.7259 4.37642Q44.4574 4.09091 43.983 4.09091Q43.4858 4.09091 43.1605 4.40199Q42.8352 4.71307 42.8352 5.28409ZM8.77841 5L10.0284 5Q10.7273 5 11.0256 4.69886Q11.3239 4.39773 11.3239 3.875Q11.3239 3.34943 11.0241 3.03267Q10.7244 2.71591 10.017 2.71591L8.77841 2.71591L8.77841 5ZM32.0625 3.54545L32.7102 3.54545L32.7102 4.20455L32.7557 4.20455Q32.875 3.88068 33.1875 3.67898Q33.5 3.47727 33.892 3.47727Q33.9659 3.47727 34.0767 3.48011Q34.1875 3.48295 34.2443 3.48864L34.2443 4.17045Q34.2102 4.16193 34.0895 4.14347Q33.9688 4.125 33.8352 4.125Q33.358 4.125 33.0455 4.41477Q32.733 4.70455 32.733 5.14773L32.733 7.90909L32.0625 7.90909L32.0625 3.54545ZM14.9261 8Q14.2955 8 13.8395 7.72017Q13.3835 7.44034 13.1378 6.93608Q12.892 6.43182 12.892 5.76136Q12.892 5.09091 13.1378 4.57813Q13.3835 4.06534 13.8253 3.77699Q14.267 3.48864 14.858 3.48864Q15.1989 3.48864 15.5313 3.60227Q15.8636 3.71591 16.1364 3.97017Q16.4091 4.22443 16.571 4.64205Q16.733 5.05966 16.733 5.67045L16.733 5.95455L13.5653 5.95455Q13.5881 6.65341 13.9616 7.02557Q14.3352 7.39773 14.9261 7.39773Q15.321 7.39773 15.6051 7.22727Q15.8892 7.05682 16.017 6.71591L16.6648 6.89773Q16.5114 7.39205 16.0511 7.69602Q15.5909 8 14.9261 8ZM18.4261 7.90909L18.4261 5.28409Q18.4261 4.71307 18.7429 4.40199Q19.0597 4.09091 19.5398 4.09091Q20.0057 4.09091 20.2727 4.37926Q20.5398 4.66761 20.5398 5.18182L20.5398 7.90909L21.2102 7.90909L21.2102 5.13636Q21.2102 4.30114 20.8026 3.89489Q20.3949 3.48864 19.733 3.48864Q19.2386 3.48864 18.9261 3.69176Q18.6136 3.89489 18.4602 4.22727L18.4034 4.22727L18.4034 3.54545L17.7557 3.54545L17.7557 7.90909L18.4261 7.90909ZM28.1463 7.72017Q28.6023 8 29.233 8Q29.8977 8 30.358 7.69602Q30.8182 7.39205 30.9716 6.89773L30.3239 6.71591Q30.196 7.05682 29.9119 7.22727Q29.6278 7.39773 29.233 7.39773Q28.642 7.39773 28.2685 7.02557Q27.8949 6.65341 27.8722 5.95455L31.0398 5.95455L31.0398 5.67045Q31.0398 5.05966 30.8778 4.64205Q30.7159 4.22443 30.4432 3.97017Q30.1705 3.71591 29.8381 3.60227Q29.5057 3.48864 29.1648 3.48864Q28.5739 3.48864 28.1321 3.77699Q27.6903 4.06534 27.4446 4.57813Q27.1989 5.09091 27.1989 5.76136Q27.1989 6.43182 27.4446 6.93608Q27.6903 7.44034 28.1463 7.72017ZM37.2898 3.54545L37.2898 9.54545L37.9602 9.54545L37.9602 7.23864L38.017 7.23864Q38.0909 7.35795 38.2273 7.53835Q38.3636 7.71875 38.6165 7.85938Q38.8693 8 39.2898 8Q39.8352 8 40.2528 7.72301Q40.6705 7.44602 40.9063 6.93892Q41.142 6.43182 41.142 5.73864Q41.142 5.05114 40.9063 4.54545Q40.6705 4.03977 40.25 3.7642Q39.8295 3.48864 39.2784 3.48864Q38.8523 3.48864 38.6037 3.62926Q38.3551 3.76989 38.223 3.94744Q38.0909 4.125 38.017 4.23864L37.9375 4.23864L37.9375 3.54545L37.2898 3.54545ZM47.4233 7.85369Q47.7614 8.01136 48.1761 8.01136Q48.5568 8.01136 48.821 7.89773Q49.0852 7.78409 49.2443 7.62216Q49.4034 7.46023 49.4716 7.31818L49.5057 7.31818L49.5057 7.90909L50.1761 7.90909L50.1761 5.03409Q50.1761 4.5142 50.0057 4.20455Q49.8352 3.89489 49.5781 3.74148Q49.321 3.58807 49.0469 3.53835Q48.7727 3.48864 48.5625 3.48864Q48.233 3.48864 47.8935 3.57813Q47.554 3.66761 47.2685 3.89063Q46.983 4.11364 46.8125 4.51136L47.4489 4.73864Q47.5597 4.5 47.8324 4.28977Q48.1051 4.07955 48.5852 4.07955Q49.0483 4.07955 49.277 4.3125Q49.5057 4.54545 49.5057 4.96591L49.5057 4.98864Q49.5057 5.15057 49.3906 5.21591Q49.2756 5.28125 49.027 5.30824Q48.7784 5.33523 48.3807 5.38636Q48.0767 5.42614 47.777 5.4929Q47.4773 5.55966 47.2301 5.69318Q46.983 5.8267 46.8352 6.06108Q46.6875 6.29545 46.6875 6.67045Q46.6875 7.09659 46.8864 7.39631Q47.0852 7.69602 47.4233 7.85369ZM54.4943 4.52273L53.892 4.69318Q53.804 4.46591 53.5966 4.26705Q53.3892 4.06818 52.9489 4.06818Q52.5483 4.06818 52.2827 4.25142Q52.017 4.43466 52.017 4.71591Q52.017 4.96591 52.1989 5.1108Q52.3807 5.25568 52.767 5.35227L53.4148 5.51136Q54.5739 5.79545 54.5739 6.69318Q54.5739 7.06818 54.3594 7.36364Q54.1449 7.65909 53.7614 7.82955Q53.3778 8 52.8693 8Q52.2017 8 51.7642 7.71023Q51.3267 7.42045 51.2102 6.86364L51.8466 6.70455Q52.0256 7.40909 52.858 7.40909Q53.3267 7.40909 53.6037 7.20881Q53.8807 7.00852 53.8807 6.72727Q53.8807 6.2642 53.233 6.11364L52.5057 5.94318Q51.9063 5.80114 51.6264 5.50142Q51.3466 5.2017 51.3466 4.75Q51.3466 4.38068 51.5554 4.09659Q51.7642 3.8125 52.1264 3.65057Q52.4886 3.48864 52.9489 3.48864Q53.5966 3.48864 53.9673 3.77273Q54.3381 4.05682 54.4943 4.52273ZM56.3281 7.72017Q56.7841 8 57.4148 8Q58.0795 8 58.5398 7.69602Q59 7.39205 59.1534 6.89773L58.5057 6.71591Q58.3778 7.05682 58.0937 7.22727Q57.8097 7.39773 57.4148 7.39773Q56.8239 7.39773 56.4503 7.02557Q56.0767 6.65341 56.054 5.95455L59.2216 5.95455L59.2216 5.67045Q59.2216 5.05966 59.0597 4.64205Q58.8977 4.22443 58.625 3.97017Q58.3523 3.71591 58.0199 3.60227Q57.6875 3.48864 57.3466 3.48864Q56.7557 3.48864 56.3139 3.77699Q55.8722 4.06534 55.6264 4.57813Q55.3807 5.09091 55.3807 5.76136Q55.3807 6.43182 55.6264 6.93608Q55.8722 7.44034 56.3281 7.72017ZM13.5653 5.375L16.0511 5.375Q16.0511 4.82102 15.7273 4.45597Q15.4034 4.09091 14.858 4.09091Q14.4744 4.09091 14.1932 4.26989Q13.9119 4.44886 13.75 4.7429Q13.5881 5.03693 13.5653 5.375ZM24.1761 7.39773Q24.7813 7.39773 25.1037 6.93324Q25.4261 6.46875 25.4261 5.72727Q25.4261 4.99432 25.108 4.54261Q24.7898 4.09091 24.1761 4.09091Q23.75 4.09091 23.4673 4.30824Q23.1847 4.52557 23.044 4.89631Q22.9034 5.26705 22.9034 5.72727Q22.9034 6.19318 23.0469 6.57244Q23.1903 6.9517 23.473 7.17472Q23.7557 7.39773 24.1761 7.39773ZM30.358 5.375L27.8722 5.375Q27.8949 5.03693 28.0568 4.7429Q28.2188 4.44886 28.5 4.26989Q28.7813 4.09091 29.1648 4.09091Q29.7102 4.09091 30.0341 4.45597Q30.358 4.82102 30.358 5.375ZM38.2713 6.93324Q37.9489 6.46875 37.9489 5.72727Q37.9489 4.99432 38.267 4.54261Q38.5852 4.09091 39.1989 4.09091Q39.625 4.09091 39.9077 4.30824Q40.1903 4.52557 40.331 4.89631Q40.4716 5.26705 40.4716 5.72727Q40.4716 6.19318 40.3281 6.57244Q40.1847 6.9517 39.902 7.17472Q39.6193 7.39773 39.1989 7.39773Q38.5938 7.39773 38.2713 6.93324ZM58.5398 5.375L56.054 5.375Q56.0767 5.03693 56.2386 4.7429Q56.4006 4.44886 56.6818 4.26989Q56.9631 4.09091 57.3466 4.09091Q57.892 4.09091 58.2159 4.45597Q58.5398 4.82102 58.5398 5.375ZM48.9503 7.25284Q48.6761 7.40909 48.2784 7.40909Q47.8778 7.40909 47.6179 7.23153Q47.358 7.05398 47.358 6.70455Q47.358 6.44886 47.4957 6.29972Q47.6335 6.15057 47.8594 6.07528Q48.0852 6 48.3466 5.96591Q48.4545 5.9517 48.6293 5.9304Q48.804 5.90909 48.9901 5.87926Q49.1761 5.84943 49.3196 5.80824Q49.4631 5.76705 49.5057 5.71591L49.5057 6.32955Q49.5057 6.60227 49.3651 6.84943Q49.2244 7.09659 48.9503 7.25284Z" />
    </g>
    <g id="--Commit-phase" fill="#212121" transform="translate(214 49)">
      <path d="M29.6179 2.68466Q29.7585 2.81818 29.9545 2.81818Q30.1506 2.81818 30.2912 2.68466Q30.4318 2.55114 30.4318 2.36364Q30.4318 2.17614 30.2912 2.04261Q30.1506 1.90909 29.9545 1.90909Q29.7585 1.90909 29.6179 2.04261Q29.4773 2.17614 29.4773 2.36364Q29.4773 2.55114 29.6179 2.68466ZM9.88636 3.90909L9.18182 3.90909Q9.09659 3.50568 8.85511 3.23011Q8.61364 2.95455 8.27273 2.8125Q7.93182 2.67045 7.54545 2.67045Q7.01705 2.67045 6.58949 2.9375Q6.16193 3.20455 5.91051 3.72443Q5.65909 4.24432 5.65909 5Q5.65909 5.75568 5.91051 6.27557Q6.16193 6.79545 6.58949 7.0625Q7.01705 7.32955 7.54545 7.32955Q7.93182 7.32955 8.27273 7.1875Q8.61364 7.04545 8.85511 6.76989Q9.09659 6.49432 9.18182 6.09091L9.88636 6.09091Q9.77841 6.6875 9.44602 7.11222Q9.11364 7.53693 8.62216 7.76278Q8.13068 7.98864 7.54545 7.98864Q6.80114 7.98864 6.22159 7.625Q5.64205 7.26136 5.30966 6.59091Q4.97727 5.92045 4.97727 5Q4.97727 4.07955 5.30966 3.40909Q5.64205 2.73864 6.22159 2.375Q6.80114 2.01136 7.54545 2.01136Q8.13068 2.01136 8.62216 2.23722Q9.11364 2.46307 9.44602 2.88778Q9.77841 3.3125 9.88636 3.90909ZM42.2159 5.28409L42.2159 7.90909L41.5455 7.90909L41.5455 2.09091L42.2159 2.09091L42.2159 4.22727L42.2727 4.22727Q42.4261 3.8892 42.7344 3.68892Q43.0426 3.48864 43.5568 3.48864Q44.2273 3.48864 44.6364 3.89205Q45.0455 4.29545 45.0455 5.13636L45.0455 7.90909L44.375 7.90909L44.375 5.18182Q44.375 4.66193 44.1065 4.37642Q43.8381 4.09091 43.3636 4.09091Q42.8665 4.09091 42.5412 4.40199Q42.2159 4.71307 42.2159 5.28409ZM33.4091 3.54545L33.4091 4.11364L32.4773 4.11364L32.4773 6.65909Q32.4773 6.94318 32.5611 7.08381Q32.6449 7.22443 32.777 7.27131Q32.9091 7.31818 33.0568 7.31818Q33.1676 7.31818 33.2386 7.3054Q33.3097 7.29261 33.3523 7.28409L33.4886 7.88636Q33.4205 7.91193 33.2983 7.93892Q33.1761 7.96591 32.9886 7.96591Q32.7045 7.96591 32.4332 7.84375Q32.1619 7.72159 31.9844 7.47159Q31.8068 7.22159 31.8068 6.84091L31.8068 4.11364L31.1477 4.11364L31.1477 3.54545L31.8068 3.54545L31.8068 2.5L32.4773 2.5L32.4773 3.54545L33.4091 3.54545ZM12.7045 8Q12.1136 8 11.669 7.71875Q11.2244 7.4375 10.9759 6.93182Q10.7273 6.42614 10.7273 5.75Q10.7273 5.06818 10.9759 4.55966Q11.2244 4.05114 11.669 3.76989Q12.1136 3.48864 12.7045 3.48864Q13.2955 3.48864 13.7401 3.76989Q14.1847 4.05114 14.4332 4.55966Q14.6818 5.06818 14.6818 5.75Q14.6818 6.42614 14.4332 6.93182Q14.1847 7.4375 13.7401 7.71875Q13.2955 8 12.7045 8ZM15.7045 3.54545L15.7045 7.90909L16.375 7.90909L16.375 5.18182Q16.375 4.8608 16.5128 4.61506Q16.6506 4.36932 16.8764 4.23011Q17.1023 4.09091 17.3636 4.09091Q17.7443 4.09091 17.9858 4.3196Q18.2273 4.5483 18.2273 4.92045L18.2273 7.90909L18.9091 7.90909L18.9091 5.06818Q18.9091 4.64489 19.1619 4.3679Q19.4148 4.09091 19.875 4.09091Q20.233 4.09091 20.4972 4.2983Q20.7614 4.50568 20.7614 4.98864L20.7614 7.90909L21.4318 7.90909L21.4318 4.98864Q21.4318 4.21875 21.0597 3.85369Q20.6875 3.48864 20.1023 3.48864Q19.6335 3.48864 19.2983 3.68892Q18.9631 3.8892 18.7955 4.22727L18.75 4.22727Q18.5881 3.87784 18.2997 3.68324Q18.0114 3.48864 17.5795 3.48864Q17.1534 3.48864 16.8494 3.68324Q16.5455 3.87784 16.4091 4.22727L16.3523 4.22727L16.3523 3.54545L15.7045 3.54545ZM22.6591 7.90909L22.6591 3.54545L23.3068 3.54545L23.3068 4.22727L23.3636 4.22727Q23.5 3.87784 23.804 3.68324Q24.108 3.48864 24.5341 3.48864Q24.9659 3.48864 25.2543 3.68324Q25.5426 3.87784 25.7045 4.22727L25.75 4.22727Q25.9176 3.8892 26.2528 3.68892Q26.5881 3.48864 27.0568 3.48864Q27.642 3.48864 28.0142 3.85369Q28.3864 4.21875 28.3864 4.98864L28.3864 7.90909L27.7159 7.90909L27.7159 4.98864Q27.7159 4.50568 27.4517 4.2983Q27.1875 4.09091 26.8295 4.09091Q26.3693 4.09091 26.1165 4.3679Q25.8636 4.64489 25.8636 5.06818L25.8636 7.90909L25.1818 7.90909L25.1818 4.92045Q25.1818 4.5483 24.9403 4.3196Q24.6989 4.09091 24.3182 4.09091Q24.0568 4.09091 23.831 4.23011Q23.6051 4.36932 23.4673 4.61506Q23.3295 4.8608 23.3295 5.18182L23.3295 7.90909L22.6591 7.90909ZM36.6705 3.54545L36.6705 9.54545L37.3409 9.54545L37.3409 7.23864L37.3977 7.23864Q37.4716 7.35795 37.608 7.53835Q37.7443 7.71875 37.9972 7.85938Q38.25 8 38.6705 8Q39.2159 8 39.6335 7.72301Q40.0511 7.44602 40.2869 6.93892Q40.5227 6.43182 40.5227 5.73864Q40.5227 5.05114 40.2869 4.54545Q40.0511 4.03977 39.6307 3.7642Q39.2102 3.48864 38.6591 3.48864Q38.233 3.48864 37.9844 3.62926Q37.7358 3.76989 37.6037 3.94744Q37.4716 4.125 37.3977 4.23864L37.3182 4.23864L37.3182 3.54545L36.6705 3.54545ZM46.804 7.85369Q47.142 8.01136 47.5568 8.01136Q47.9375 8.01136 48.2017 7.89773Q48.4659 7.78409 48.625 7.62216Q48.7841 7.46023 48.8523 7.31818L48.8864 7.31818L48.8864 7.90909L49.5568 7.90909L49.5568 5.03409Q49.5568 4.5142 49.3864 4.20455Q49.2159 3.89489 48.9588 3.74148Q48.7017 3.58807 48.4276 3.53835Q48.1534 3.48864 47.9432 3.48864Q47.6136 3.48864 47.2741 3.57813Q46.9347 3.66761 46.6491 3.89063Q46.3636 4.11364 46.1932 4.51136L46.8295 4.73864Q46.9403 4.5 47.2131 4.28977Q47.4858 4.07955 47.9659 4.07955Q48.429 4.07955 48.6577 4.3125Q48.8864 4.54545 48.8864 4.96591L48.8864 4.98864Q48.8864 5.15057 48.7713 5.21591Q48.6563 5.28125 48.4077 5.30824Q48.1591 5.33523 47.7614 5.38636Q47.4574 5.42614 47.1577 5.4929Q46.858 5.55966 46.6108 5.69318Q46.3636 5.8267 46.2159 6.06108Q46.0682 6.29545 46.0682 6.67045Q46.0682 7.09659 46.267 7.39631Q46.4659 7.69602 46.804 7.85369ZM53.875 4.52273L53.2727 4.69318Q53.1847 4.46591 52.9773 4.26705Q52.7699 4.06818 52.3295 4.06818Q51.929 4.06818 51.6634 4.25142Q51.3977 4.43466 51.3977 4.71591Q51.3977 4.96591 51.5795 5.1108Q51.7614 5.25568 52.1477 5.35227L52.7955 5.51136Q53.9545 5.79545 53.9545 6.69318Q53.9545 7.06818 53.7401 7.36364Q53.5256 7.65909 53.142 7.82955Q52.7585 8 52.25 8Q51.5824 8 51.1449 7.71023Q50.7074 7.42045 50.5909 6.86364L51.2273 6.70455Q51.4063 7.40909 52.2386 7.40909Q52.7074 7.40909 52.9844 7.20881Q53.2614 7.00852 53.2614 6.72727Q53.2614 6.2642 52.6136 6.11364L51.8864 5.94318Q51.2869 5.80114 51.0071 5.50142Q50.7273 5.2017 50.7273 4.75Q50.7273 4.38068 50.9361 4.09659Q51.1449 3.8125 51.5071 3.65057Q51.8693 3.48864 52.3295 3.48864Q52.9773 3.48864 53.348 3.77273Q53.7188 4.05682 53.875 4.52273ZM55.7088 7.72017Q56.1648 8 56.7955 8Q57.4602 8 57.9205 7.69602Q58.3807 7.39205 58.5341 6.89773L57.8864 6.71591Q57.7585 7.05682 57.4744 7.22727Q57.1903 7.39773 56.7955 7.39773Q56.2045 7.39773 55.831 7.02557Q55.4574 6.65341 55.4347 5.95455L58.6023 5.95455L58.6023 5.67045Q58.6023 5.05966 58.4403 4.64205Q58.2784 4.22443 58.0057 3.97017Q57.733 3.71591 57.4006 3.60227Q57.0682 3.48864 56.7273 3.48864Q56.1364 3.48864 55.6946 3.77699Q55.2528 4.06534 55.0071 4.57813Q54.7614 5.09091 54.7614 5.76136Q54.7614 6.43182 55.0071 6.93608Q55.2528 7.44034 55.7088 7.72017ZM29.6136 3.54545L29.6136 7.90909L30.2841 7.90909L30.2841 3.54545L29.6136 3.54545ZM12.7045 7.39773Q13.1534 7.39773 13.4432 7.16761Q13.733 6.9375 13.8722 6.5625Q14.0114 6.1875 14.0114 5.75Q14.0114 5.3125 13.8722 4.93466Q13.733 4.55682 13.4432 4.32386Q13.1534 4.09091 12.7045 4.09091Q12.2557 4.09091 11.9659 4.32386Q11.6761 4.55682 11.5369 4.93466Q11.3977 5.3125 11.3977 5.75Q11.3977 6.1875 11.5369 6.5625Q11.6761 6.9375 11.9659 7.16761Q12.2557 7.39773 12.7045 7.39773ZM37.652 6.93324Q37.3295 6.46875 37.3295 5.72727Q37.3295 4.99432 37.6477 4.54261Q37.9659 4.09091 38.5795 4.09091Q39.0057 4.09091 39.2884 4.30824Q39.571 4.52557 39.7117 4.89631Q39.8523 5.26705 39.8523 5.72727Q39.8523 6.19318 39.7088 6.57244Q39.5653 6.9517 39.2827 7.17472Q39 7.39773 38.5795 7.39773Q37.9744 7.39773 37.652 6.93324ZM57.9205 5.375L55.4347 5.375Q55.4574 5.03693 55.6193 4.7429Q55.7813 4.44886 56.0625 4.26989Q56.3438 4.09091 56.7273 4.09091Q57.2727 4.09091 57.5966 4.45597Q57.9205 4.82102 57.9205 5.375ZM48.331 7.25284Q48.0568 7.40909 47.6591 7.40909Q47.2585 7.40909 46.9986 7.23153Q46.7386 7.05398 46.7386 6.70455Q46.7386 6.44886 46.8764 6.29972Q47.0142 6.15057 47.2401 6.07528Q47.4659 6 47.7273 5.96591Q47.8352 5.9517 48.0099 5.9304Q48.1847 5.90909 48.3707 5.87926Q48.5568 5.84943 48.7003 5.80824Q48.8438 5.76705 48.8864 5.71591L48.8864 6.32955Q48.8864 6.60227 48.7457 6.84943Q48.6051 7.09659 48.331 7.25284Z" />
    </g>
    <g id="Group-2" transform="translate(37 66.5)">
      <g id="Group">
        <path d="M0 0L28 0L28 14L0 14L0 0Z" transform="translate(0 0.49951172)" id="Rectangle-3" fill="#AFAFAF" fill-rule="evenodd" stroke="none" />
        <g id="Root" fill="#212121">
          <path d="M5.92045 4.59091L5.92045 10.4091L6.625 10.4091L6.625 8.13636L7.89773 8.13636Q7.97443 8.13636 8.04545 8.13352L9.27273 10.4091L10.0909 10.4091L8.77557 8.00568Q9.33239 7.81534 9.59801 7.38494Q9.86364 6.95455 9.86364 6.375Q9.86364 5.8608 9.65341 5.45739Q9.44318 5.05398 9.00568 4.82244Q8.56818 4.59091 7.88636 4.59091L5.92045 4.59091ZM22.3864 6.61364L22.3864 6.04545L21.4545 6.04545L21.4545 5L20.7841 5L20.7841 6.04545L20.125 6.04545L20.125 6.61364L20.7841 6.61364L20.7841 9.34091Q20.7841 9.72159 20.9616 9.97159Q21.1392 10.2216 21.4105 10.3438Q21.6818 10.4659 21.9659 10.4659Q22.1534 10.4659 22.2756 10.4389Q22.3977 10.4119 22.4659 10.3864L22.3295 9.78409Q22.2869 9.79261 22.2159 9.8054Q22.1449 9.81818 22.0341 9.81818Q21.8864 9.81818 21.7543 9.77131Q21.6222 9.72443 21.5384 9.58381Q21.4545 9.44318 21.4545 9.15909L21.4545 6.61364L22.3864 6.61364ZM7.875 7.5L6.625 7.5L6.625 5.21591L7.86364 5.21591Q8.57102 5.21591 8.87074 5.53267Q9.17045 5.84943 9.17045 6.375Q9.17045 6.89773 8.87216 7.19886Q8.57386 7.5 7.875 7.5ZM11.6804 10.2188Q12.125 10.5 12.7159 10.5Q13.3068 10.5 13.7514 10.2188Q14.196 9.9375 14.4446 9.43182Q14.6932 8.92614 14.6932 8.25Q14.6932 7.56818 14.4446 7.05966Q14.196 6.55114 13.7514 6.26989Q13.3068 5.98864 12.7159 5.98864Q12.125 5.98864 11.6804 6.26989Q11.2358 6.55114 10.9872 7.05966Q10.7386 7.56818 10.7386 8.25Q10.7386 8.92614 10.9872 9.43182Q11.2358 9.9375 11.6804 10.2188ZM17.4886 10.5Q16.8977 10.5 16.4531 10.2188Q16.0085 9.9375 15.7599 9.43182Q15.5114 8.92614 15.5114 8.25Q15.5114 7.56818 15.7599 7.05966Q16.0085 6.55114 16.4531 6.26989Q16.8977 5.98864 17.4886 5.98864Q18.0795 5.98864 18.5241 6.26989Q18.9688 6.55114 19.2173 7.05966Q19.4659 7.56818 19.4659 8.25Q19.4659 8.92614 19.2173 9.43182Q18.9688 9.9375 18.5241 10.2188Q18.0795 10.5 17.4886 10.5ZM13.4545 9.66761Q13.1648 9.89773 12.7159 9.89773Q12.267 9.89773 11.9773 9.66761Q11.6875 9.4375 11.5483 9.0625Q11.4091 8.6875 11.4091 8.25Q11.4091 7.8125 11.5483 7.43466Q11.6875 7.05682 11.9773 6.82386Q12.267 6.59091 12.7159 6.59091Q13.1648 6.59091 13.4545 6.82386Q13.7443 7.05682 13.8835 7.43466Q14.0227 7.8125 14.0227 8.25Q14.0227 8.6875 13.8835 9.0625Q13.7443 9.4375 13.4545 9.66761ZM17.4886 9.89773Q17.9375 9.89773 18.2273 9.66761Q18.517 9.4375 18.6563 9.0625Q18.7955 8.6875 18.7955 8.25Q18.7955 7.8125 18.6563 7.43466Q18.517 7.05682 18.2273 6.82386Q17.9375 6.59091 17.4886 6.59091Q17.0398 6.59091 16.75 6.82386Q16.4602 7.05682 16.321 7.43466Q16.1818 7.8125 16.1818 8.25Q16.1818 8.6875 16.321 9.0625Q16.4602 9.4375 16.75 9.66761Q17.0398 9.89773 17.4886 9.89773Z" />
        </g>
      </g>
    </g>
    <g id="Group-2-Copy-3" transform="translate(106.90015 66.5)">
      <g id="Group">
        <path d="M0 0L28 0L28 14L0 14L0 0Z" transform="translate(0 0.49951172)" id="Rectangle-3" fill="#AFAFAF" fill-rule="evenodd" stroke="none" />
        <g id="Jsx" fill="#212121">
          <path d="M10.5114 4.59091L11.2159 4.59091L11.2159 8.75Q11.2159 9.58807 10.7656 10.0384Q10.3153 10.4886 9.55682 10.4886Q9.07955 10.4886 8.70739 10.3139Q8.33523 10.1392 8.12216 9.81534Q7.90909 9.49148 7.90909 9.04545L8.60227 9.04545Q8.60227 9.41477 8.87216 9.6392Q9.14205 9.86364 9.55682 9.86364Q10.0142 9.86364 10.2628 9.57813Q10.5114 9.29261 10.5114 8.75L10.5114 4.59091ZM15.625 7.02273L15.0227 7.19318Q14.9347 6.96591 14.7273 6.76705Q14.5199 6.56818 14.0795 6.56818Q13.679 6.56818 13.4134 6.75142Q13.1477 6.93466 13.1477 7.21591Q13.1477 7.46591 13.3295 7.6108Q13.5114 7.75568 13.8977 7.85227L14.5455 8.01136Q15.7045 8.29545 15.7045 9.19318Q15.7045 9.56818 15.4901 9.86364Q15.2756 10.1591 14.892 10.3295Q14.5085 10.5 14 10.5Q13.3324 10.5 12.8949 10.2102Q12.4574 9.92045 12.3409 9.36364L12.9773 9.20455Q13.1563 9.90909 13.9886 9.90909Q14.4574 9.90909 14.7344 9.70881Q15.0114 9.50852 15.0114 9.22727Q15.0114 8.7642 14.3636 8.61364L13.6364 8.44318Q13.0369 8.30114 12.7571 8.00142Q12.4773 7.7017 12.4773 7.25Q12.4773 6.88068 12.6861 6.59659Q12.8949 6.3125 13.2571 6.15057Q13.6193 5.98864 14.0795 5.98864Q14.7273 5.98864 15.098 6.27273Q15.4688 6.55682 15.625 7.02273ZM18.2614 7.82955L17.2159 6.04545L16.4432 6.04545L17.8295 8.22727L16.4432 10.4091L17.2159 10.4091L18.2614 8.71591L19.3068 10.4091L20.0795 10.4091L18.6705 8.22727L20.0795 6.04545L19.3068 6.04545L18.2614 7.82955Z" />
        </g>
      </g>
    </g>
    <g id="Group-2-Copy-5" transform="translate(235 117)">
      <g id="Group">
        <path d="M0 0L28 0L28 14L0 14L0 0Z" transform="translate(0 0.49951172)" id="Rectangle-3" fill="#AFAFAF" fill-rule="evenodd" stroke="none" />
        <g id="DOM" fill="#212121">
          <path d="M15.8864 7.5Q15.8864 8.42045 15.554 9.09091Q15.2216 9.76136 14.642 10.125Q14.0625 10.4886 13.3182 10.4886Q12.5739 10.4886 11.9943 10.125Q11.4148 9.76136 11.0824 9.09091Q10.75 8.42045 10.75 7.5Q10.75 6.57955 11.0824 5.90909Q11.4148 5.23864 11.9943 4.875Q12.5739 4.51136 13.3182 4.51136Q14.0625 4.51136 14.642 4.875Q15.2216 5.23864 15.554 5.90909Q15.8864 6.57955 15.8864 7.5ZM7.02273 10.4091L5.22727 10.4091L5.22727 4.59091L7.10227 4.59091Q7.94886 4.59091 8.55114 4.93892Q9.15341 5.28693 9.47443 5.93608Q9.79545 6.58523 9.79545 7.48864Q9.79545 8.39773 9.47159 9.05256Q9.14773 9.70739 8.52841 10.0582Q7.90909 10.4091 7.02273 10.4091ZM17.9091 4.59091L17.0682 4.59091L17.0682 10.4091L17.7273 10.4091L17.7273 5.98864L17.7841 5.98864L19.6023 10.4091L20.2386 10.4091L22.0568 5.98864L22.1136 5.98864L22.1136 10.4091L22.7727 10.4091L22.7727 4.59091L21.9318 4.59091L19.9545 9.42045L19.8864 9.42045L17.9091 4.59091ZM15.2045 7.5Q15.2045 6.74432 14.9531 6.22443Q14.7017 5.70455 14.2741 5.4375Q13.8466 5.17045 13.3182 5.17045Q12.7898 5.17045 12.3622 5.4375Q11.9347 5.70455 11.6832 6.22443Q11.4318 6.74432 11.4318 7.5Q11.4318 8.25568 11.6832 8.77557Q11.9347 9.29545 12.3622 9.5625Q12.7898 9.82955 13.3182 9.82955Q13.8466 9.82955 14.2741 9.5625Q14.7017 9.29545 14.9531 8.77557Q15.2045 8.25568 15.2045 7.5ZM5.93182 9.78409L6.97727 9.78409Q8.05966 9.78409 8.58665 9.16903Q9.11364 8.55398 9.11364 7.48864Q9.11364 6.43182 8.59659 5.82386Q8.07955 5.21591 7.05682 5.21591L5.93182 5.21591L5.93182 9.78409Z" />
        </g>
      </g>
    </g>
    <g id="Group-2-Copy-4" transform="translate(90.40015 133.2002)">
      <g id="Group">
        <path d="M0 0L61 0L61 18L0 18L0 0Z" id="Rectangle-3" fill="#AFAFAF" fill-rule="evenodd" stroke="none" />
        <g id="React-Element" fill="#212121" transform="translate(3.5 3.4013672)">
          <path d="M0.704545 2.09091L0.704545 7.90909L1.40909 7.90909L1.40909 5.63636L2.68182 5.63636Q2.75852 5.63636 2.82955 5.63352L4.05682 7.90909L4.875 7.90909L3.55966 5.50568Q4.11648 5.31534 4.3821 4.88494Q4.64773 4.45455 4.64773 3.875Q4.64773 3.3608 4.4375 2.95739Q4.22727 2.55398 3.78977 2.32244Q3.35227 2.09091 2.67045 2.09091L0.704545 2.09091ZM28.125 2.09091L24.6136 2.09091L24.6136 7.90909L28.1705 7.90909L28.1705 7.28409L25.3182 7.28409L25.3182 5.30682L27.9432 5.30682L27.9432 4.68182L25.3182 4.68182L25.3182 2.71591L28.125 2.71591L28.125 2.09091ZM29.9773 7.90909L29.3068 7.90909L29.3068 2.09091L29.9773 2.09091L29.9773 7.90909ZM21.2614 3.54545L21.2614 4.11364L20.3295 4.11364L20.3295 6.65909Q20.3295 6.94318 20.4134 7.08381Q20.4972 7.22443 20.6293 7.27131Q20.7614 7.31818 20.9091 7.31818Q21.0199 7.31818 21.0909 7.3054Q21.1619 7.29261 21.2045 7.28409L21.3409 7.88636Q21.2727 7.91193 21.1506 7.93892Q21.0284 7.96591 20.8409 7.96591Q20.5568 7.96591 20.2855 7.84375Q20.0142 7.72159 19.8366 7.47159Q19.6591 7.22159 19.6591 6.84091L19.6591 4.11364L19 4.11364L19 3.54545L19.6591 3.54545L19.6591 2.5L20.3295 2.5L20.3295 3.54545L21.2614 3.54545ZM54.0568 4.11364L54.0568 3.54545L53.125 3.54545L53.125 2.5L52.4545 2.5L52.4545 3.54545L51.7955 3.54545L51.7955 4.11364L52.4545 4.11364L52.4545 6.84091Q52.4545 7.22159 52.6321 7.47159Q52.8097 7.72159 53.081 7.84375Q53.3523 7.96591 53.6364 7.96591Q53.8239 7.96591 53.946 7.93892Q54.0682 7.91193 54.1364 7.88636L54 7.28409Q53.9574 7.29261 53.8864 7.3054Q53.8153 7.31818 53.7045 7.31818Q53.5568 7.31818 53.4247 7.27131Q53.2926 7.22443 53.2088 7.08381Q53.125 6.94318 53.125 6.65909L53.125 4.11364L54.0568 4.11364ZM2.65909 5L1.40909 5L1.40909 2.71591L2.64773 2.71591Q3.35511 2.71591 3.65483 3.03267Q3.95455 3.34943 3.95455 3.875Q3.95455 4.39773 3.65625 4.69886Q3.35795 5 2.65909 5ZM6.47017 7.72017Q6.92614 8 7.55682 8Q8.22159 8 8.68182 7.69602Q9.14204 7.39205 9.29545 6.89773L8.64773 6.71591Q8.51989 7.05682 8.2358 7.22727Q7.9517 7.39773 7.55682 7.39773Q6.96591 7.39773 6.59233 7.02557Q6.21875 6.65341 6.19602 5.95455L9.36364 5.95455L9.36364 5.67045Q9.36364 5.05966 9.2017 4.64205Q9.03977 4.22443 8.76705 3.97017Q8.49432 3.71591 8.16193 3.60227Q7.82955 3.48864 7.48864 3.48864Q6.89773 3.48864 6.45597 3.77699Q6.0142 4.06534 5.76847 4.57813Q5.52273 5.09091 5.52273 5.76136Q5.52273 6.43182 5.76847 6.93608Q6.0142 7.44034 6.47017 7.72017ZM11.6705 8.01136Q11.2557 8.01136 10.9176 7.85369Q10.5795 7.69602 10.3807 7.39631Q10.1818 7.09659 10.1818 6.67045Q10.1818 6.29545 10.3295 6.06108Q10.4773 5.8267 10.7244 5.69318Q10.9716 5.55966 11.2713 5.4929Q11.571 5.42614 11.875 5.38636Q12.2727 5.33523 12.5213 5.30824Q12.7699 5.28125 12.8849 5.21591Q13 5.15057 13 4.98864L13 4.96591Q13 4.54545 12.7713 4.3125Q12.5426 4.07955 12.0795 4.07955Q11.5994 4.07955 11.3267 4.28977Q11.054 4.5 10.9432 4.73864L10.3068 4.51136Q10.4773 4.11364 10.7628 3.89063Q11.0483 3.66761 11.3878 3.57813Q11.7273 3.48864 12.0568 3.48864Q12.267 3.48864 12.5412 3.53835Q12.8153 3.58807 13.0724 3.74148Q13.3295 3.89489 13.5 4.20455Q13.6705 4.5142 13.6705 5.03409L13.6705 7.90909L13 7.90909L13 7.31818L12.9659 7.31818Q12.8977 7.46023 12.7386 7.62216Q12.5795 7.78409 12.3153 7.89773Q12.0511 8.01136 11.6705 8.01136ZM15.6136 7.71023Q16.0568 8 16.6705 8Q17.1534 8 17.5185 7.8196Q17.8835 7.6392 18.1065 7.33097Q18.3295 7.02273 18.3864 6.63636L17.7159 6.63636Q17.6222 6.99432 17.3423 7.19602Q17.0625 7.39773 16.6705 7.39773Q16.0739 7.39773 15.7188 6.94176Q15.3636 6.4858 15.3636 5.72727Q15.3636 4.9858 15.723 4.53835Q16.0824 4.09091 16.6705 4.09091Q17.1136 4.09091 17.3764 4.32244Q17.6392 4.55398 17.7159 4.85227L18.3864 4.85227Q18.3295 4.44318 18.0938 4.13636Q17.858 3.82955 17.4886 3.65909Q17.1193 3.48864 16.6591 3.48864Q16.0682 3.48864 15.6264 3.77699Q15.1847 4.06534 14.9389 4.57528Q14.6932 5.08523 14.6932 5.75Q14.6932 6.40341 14.9318 6.91193Q15.1705 7.42045 15.6136 7.71023ZM31.9474 7.72017Q32.4034 8 33.0341 8Q33.6989 8 34.1591 7.69602Q34.6193 7.39205 34.7727 6.89773L34.125 6.71591Q33.9972 7.05682 33.7131 7.22727Q33.429 7.39773 33.0341 7.39773Q32.4432 7.39773 32.0696 7.02557Q31.696 6.65341 31.6733 5.95455L34.8409 5.95455L34.8409 5.67045Q34.8409 5.05966 34.679 4.64205Q34.517 4.22443 34.2443 3.97017Q33.9716 3.71591 33.6392 3.60227Q33.3068 3.48864 32.9659 3.48864Q32.375 3.48864 31.9332 3.77699Q31.4915 4.06534 31.2457 4.57813Q31 5.09091 31 5.76136Q31 6.43182 31.2457 6.93608Q31.4915 7.44034 31.9474 7.72017ZM35.8636 3.54545L36.5114 3.54545L36.5114 4.22727L36.5682 4.22727Q36.7045 3.87784 37.0085 3.68324Q37.3125 3.48864 37.7386 3.48864Q38.1705 3.48864 38.4588 3.68324Q38.7472 3.87784 38.9091 4.22727L38.9545 4.22727Q39.1222 3.8892 39.4574 3.68892Q39.7926 3.48864 40.2614 3.48864Q40.8466 3.48864 41.2188 3.85369Q41.5909 4.21875 41.5909 4.98864L41.5909 7.90909L40.9205 7.90909L40.9205 4.98864Q40.9205 4.50568 40.6563 4.2983Q40.392 4.09091 40.0341 4.09091Q39.5739 4.09091 39.321 4.3679Q39.0682 4.64489 39.0682 5.06818L39.0682 7.90909L38.3864 7.90909L38.3864 4.92045Q38.3864 4.5483 38.1449 4.3196Q37.9034 4.09091 37.5227 4.09091Q37.2614 4.09091 37.0355 4.23011Q36.8097 4.36932 36.6719 4.61506Q36.5341 4.8608 36.5341 5.18182L36.5341 7.90909L35.8636 7.90909L35.8636 3.54545ZM43.5611 7.72017Q44.017 8 44.6477 8Q45.3125 8 45.7727 7.69602Q46.233 7.39205 46.3864 6.89773L45.7386 6.71591Q45.6108 7.05682 45.3267 7.22727Q45.0426 7.39773 44.6477 7.39773Q44.0568 7.39773 43.6832 7.02557Q43.3097 6.65341 43.2869 5.95455L46.4545 5.95455L46.4545 5.67045Q46.4545 5.05966 46.2926 4.64205Q46.1307 4.22443 45.858 3.97017Q45.5852 3.71591 45.2528 3.60227Q44.9205 3.48864 44.5795 3.48864Q43.9886 3.48864 43.5469 3.77699Q43.1051 4.06534 42.8594 4.57813Q42.6136 5.09091 42.6136 5.76136Q42.6136 6.43182 42.8594 6.93608Q43.1051 7.44034 43.5611 7.72017ZM48.1477 5.28409L48.1477 7.90909L47.4773 7.90909L47.4773 3.54545L48.125 3.54545L48.125 4.22727L48.1818 4.22727Q48.3352 3.89489 48.6477 3.69176Q48.9602 3.48864 49.4545 3.48864Q50.1165 3.48864 50.5242 3.89489Q50.9318 4.30114 50.9318 5.13636L50.9318 7.90909L50.2614 7.90909L50.2614 5.18182Q50.2614 4.66761 49.9943 4.37926Q49.7273 4.09091 49.2614 4.09091Q48.7813 4.09091 48.4645 4.40199Q48.1477 4.71307 48.1477 5.28409ZM8.68182 5.375L6.19602 5.375Q6.21875 5.03693 6.38068 4.7429Q6.54261 4.44886 6.82386 4.26989Q7.10511 4.09091 7.48864 4.09091Q8.03409 4.09091 8.35795 4.45597Q8.68182 4.82102 8.68182 5.375ZM34.1591 5.375L31.6733 5.375Q31.696 5.03693 31.858 4.7429Q32.0199 4.44886 32.3011 4.26989Q32.5824 4.09091 32.9659 4.09091Q33.5114 4.09091 33.8352 4.45597Q34.1591 4.82102 34.1591 5.375ZM45.7727 5.375L43.2869 5.375Q43.3097 5.03693 43.4716 4.7429Q43.6335 4.44886 43.9148 4.26989Q44.196 4.09091 44.5795 4.09091Q45.125 4.09091 45.4489 4.45597Q45.7727 4.82102 45.7727 5.375ZM11.7727 7.40909Q12.1705 7.40909 12.4446 7.25284Q12.7188 7.09659 12.8594 6.84943Q13 6.60227 13 6.32955L13 5.71591Q12.9574 5.76705 12.8139 5.80824Q12.6705 5.84943 12.4844 5.87926Q12.2983 5.90909 12.1236 5.9304Q11.9489 5.9517 11.8409 5.96591Q11.5795 6 11.3537 6.07528Q11.1278 6.15057 10.9901 6.29972Q10.8523 6.44886 10.8523 6.70455Q10.8523 7.05398 11.1122 7.23153Q11.3722 7.40909 11.7727 7.40909Z" />
        </g>
      </g>
    </g>
    <g id="Group-2-Copy" transform="translate(37 101.200195)">
      <g id="Group">
        <path d="M6.999 0L21.001 0Q21.1728 0 21.3444 0.0084306Q21.516 0.0168612 21.687 0.0337021Q21.858 0.050543 22.028 0.0757536Q22.1979 0.100964 22.3664 0.134484Q22.5349 0.168003 22.7016 0.209751Q22.8683 0.251499 23.0327 0.301375Q23.1971 0.35125 23.3589 0.409133Q23.5207 0.467016 23.6794 0.532767Q23.8381 0.598518 23.9935 0.671979Q24.1488 0.74544 24.3003 0.826433Q24.4518 0.907426 24.5992 0.995757Q24.7466 1.08409 24.8894 1.17954Q25.0323 1.275 25.1703 1.37735Q25.3083 1.4797 25.4411 1.5887Q25.5739 1.6977 25.7012 1.81308Q25.8285 1.92847 25.95 2.04996Q26.0715 2.17145 26.1869 2.29876Q26.3023 2.42607 26.4113 2.55888Q26.5203 2.6917 26.6226 2.8297Q26.725 2.9677 26.8205 3.11056Q26.9159 3.25342 27.0042 3.40079Q27.0926 3.54817 27.1736 3.69969Q27.2546 3.85122 27.328 4.00654Q27.4015 4.16186 27.4672 4.3206Q27.533 4.47933 27.5909 4.64111Q27.6487 4.80288 27.6986 4.9673Q27.7485 5.13171 27.7902 5.29838Q27.832 5.46505 27.8655 5.63356Q27.899 5.80208 27.9242 5.97203Q27.9495 6.14199 27.9663 6.31298Q27.9831 6.48397 27.9916 6.65558Q28 6.82718 28 6.999L28 7.001Q28 7.17282 27.9916 7.34442Q27.9831 7.51603 27.9663 7.68702Q27.9495 7.85801 27.9242 8.02797Q27.899 8.19792 27.8655 8.36644Q27.832 8.53495 27.7902 8.70162Q27.7485 8.86829 27.6986 9.0327Q27.6487 9.19712 27.5909 9.35889Q27.533 9.52066 27.4672 9.6794Q27.4015 9.83814 27.328 9.99346Q27.2546 10.1488 27.1736 10.3003Q27.0926 10.4518 27.0042 10.5992Q26.9159 10.7466 26.8204 10.8894Q26.725 11.0323 26.6226 11.1703Q26.5203 11.3083 26.4113 11.4411Q26.3023 11.5739 26.1869 11.7012Q26.0715 11.8285 25.95 11.95Q25.8285 12.0715 25.7012 12.1869Q25.5739 12.3023 25.4411 12.4113Q25.3083 12.5203 25.1703 12.6226Q25.0323 12.725 24.8894 12.8205Q24.7466 12.9159 24.5992 13.0042Q24.4518 13.0926 24.3003 13.1736Q24.1488 13.2546 23.9935 13.328Q23.8381 13.4015 23.6794 13.4672Q23.5207 13.533 23.3589 13.5909Q23.1971 13.6487 23.0327 13.6986Q22.8683 13.7485 22.7016 13.7902Q22.5349 13.832 22.3664 13.8655Q22.1979 13.899 22.028 13.9242Q21.858 13.9495 21.687 13.9663Q21.516 13.9831 21.3444 13.9916Q21.1728 14 21.001 14L6.999 14Q6.82718 14 6.65557 13.9916Q6.48397 13.9831 6.31298 13.9663Q6.14199 13.9495 5.97203 13.9242Q5.80208 13.899 5.63356 13.8655Q5.46505 13.832 5.29838 13.7902Q5.13171 13.7485 4.9673 13.6986Q4.80288 13.6487 4.64111 13.5909Q4.47933 13.533 4.3206 13.4672Q4.16186 13.4015 4.00654 13.328Q3.85122 13.2546 3.69969 13.1736Q3.54817 13.0926 3.40079 13.0042Q3.25342 12.9159 3.11056 12.8205Q2.9677 12.725 2.8297 12.6226Q2.6917 12.5203 2.55888 12.4113Q2.42607 12.3023 2.29876 12.1869Q2.17145 12.0715 2.04996 11.95Q1.92847 11.8285 1.81308 11.7012Q1.6977 11.5739 1.5887 11.4411Q1.4797 11.3083 1.37735 11.1703Q1.275 11.0323 1.17954 10.8894Q1.08409 10.7466 0.995757 10.5992Q0.907426 10.4518 0.826433 10.3003Q0.74544 10.1488 0.671979 9.99346Q0.598518 9.83814 0.532767 9.6794Q0.467016 9.52066 0.409133 9.35889Q0.35125 9.19712 0.301375 9.0327Q0.251499 8.86829 0.209751 8.70162Q0.168003 8.53495 0.134484 8.36644Q0.100964 8.19792 0.0757536 8.02797Q0.050543 7.85801 0.0337021 7.68702Q0.0168612 7.51603 0.0084306 7.34442Q0 7.17282 0 7.001L0 6.999Q0 6.82718 0.0084306 6.65557Q0.0168612 6.48397 0.0337021 6.31298Q0.050543 6.14199 0.0757536 5.97203Q0.100964 5.80208 0.134484 5.63356Q0.168003 5.46505 0.209751 5.29838Q0.251499 5.13171 0.301375 4.9673Q0.35125 4.80288 0.409133 4.64111Q0.467016 4.47933 0.532767 4.3206Q0.598518 4.16186 0.671979 4.00654Q0.74544 3.85122 0.826433 3.69969Q0.907426 3.54817 0.995757 3.40079Q1.08409 3.25342 1.17954 3.11056Q1.275 2.9677 1.37735 2.8297Q1.4797 2.6917 1.5887 2.55888Q1.6977 2.42607 1.81308 2.29876Q1.92847 2.17145 2.04996 2.04996Q2.17145 1.92847 2.29876 1.81308Q2.42607 1.6977 2.55888 1.5887Q2.6917 1.4797 2.8297 1.37735Q2.9677 1.275 3.11056 1.17954Q3.25342 1.08409 3.40079 0.995757Q3.54817 0.907426 3.69969 0.826433Q3.85122 0.74544 4.00654 0.671979Q4.16186 0.598518 4.3206 0.532767Q4.47933 0.467016 4.64111 0.409133Q4.80288 0.35125 4.9673 0.301375Q5.13171 0.251499 5.29838 0.209751Q5.46505 0.168003 5.63356 0.134484Q5.80208 0.100964 5.97203 0.0757536Q6.14199 0.050543 6.31298 0.0337021Q6.48397 0.0168612 6.65558 0.0084306Q6.82718 0 6.999 0Z" transform="translate(0 0.49951172)" id="Rectangle-3" fill="#AFAFAF" fill-rule="evenodd" stroke="none" />
        <g id="Parent" fill="#212121">
          <path d="M5.22159 5.31818L5.22159 9.68182L5.75 9.68182L5.75 8.08807L6.70455 8.08807Q7.21378 8.08807 7.53977 7.90163Q7.86577 7.7152 8.02237 7.39986Q8.17898 7.08452 8.17898 6.69886Q8.17898 6.31321 8.02131 6Q7.86364 5.68679 7.53658 5.50249Q7.20952 5.31818 6.69602 5.31818L5.22159 5.31818ZM23.0085 6.83523L23.0085 6.40909L22.3097 6.40909L22.3097 5.625L21.8068 5.625L21.8068 6.40909L21.3125 6.40909L21.3125 6.83523L21.8068 6.83523L21.8068 8.88068Q21.8068 9.16619 21.94 9.35369Q22.0732 9.54119 22.2766 9.63281Q22.4801 9.72443 22.6932 9.72443Q22.8338 9.72443 22.9254 9.70419Q23.017 9.68395 23.0682 9.66477L22.9659 9.21307Q22.9339 9.21946 22.8807 9.22905Q22.8274 9.23864 22.7443 9.23864Q22.6335 9.23864 22.5344 9.20348Q22.4354 9.16832 22.3725 9.06285Q22.3097 8.95739 22.3097 8.74432L22.3097 6.83523L23.0085 6.83523ZM6.6875 7.61932L5.75 7.61932L5.75 5.78693L6.67898 5.78693Q7.21165 5.78693 7.43537 6.04581Q7.65909 6.30469 7.65909 6.69886Q7.65909 7.09091 7.43643 7.35511Q7.21378 7.61932 6.6875 7.61932ZM12.3466 9.68182L12.3466 6.40909L12.8324 6.40909L12.8324 6.90341L12.8665 6.90341Q12.956 6.66051 13.1903 6.50923Q13.4247 6.35795 13.7188 6.35795Q13.7741 6.35795 13.8572 6.36009Q13.9403 6.36222 13.983 6.36648L13.983 6.87784Q13.9574 6.87145 13.8668 6.8576Q13.7763 6.84375 13.6761 6.84375Q13.3182 6.84375 13.0838 7.06108Q12.8494 7.27841 12.8494 7.6108L12.8494 9.68182L12.3466 9.68182ZM9.36151 9.64027Q9.61506 9.75852 9.92614 9.75852Q10.2116 9.75852 10.4098 9.6733Q10.608 9.58807 10.7273 9.46662Q10.8466 9.34517 10.8977 9.23864L10.9233 9.23864L10.9233 9.68182L11.4261 9.68182L11.4261 7.52557Q11.4261 7.13565 11.2983 6.90341Q11.1705 6.67116 10.9776 6.55611Q10.7848 6.44105 10.5792 6.40376Q10.3736 6.36648 10.2159 6.36648Q9.96875 6.36648 9.71413 6.43359Q9.45952 6.50071 9.24538 6.66797Q9.03125 6.83523 8.90341 7.13352L9.38068 7.30398Q9.46378 7.125 9.66832 6.96733Q9.87287 6.80966 10.233 6.80966Q10.5803 6.80966 10.7518 6.98438Q10.9233 7.15909 10.9233 7.47443L10.9233 7.49148Q10.9233 7.61293 10.837 7.66193Q10.7507 7.71094 10.5643 7.73118Q10.3778 7.75142 10.0795 7.78977Q9.85156 7.8196 9.62678 7.86967Q9.40199 7.91974 9.21662 8.01989Q9.03125 8.12003 8.92045 8.29581Q8.80966 8.47159 8.80966 8.75284Q8.80966 9.07244 8.95881 9.29723Q9.10795 9.52202 9.36151 9.64027ZM15.1367 9.54013Q15.4787 9.75 15.9517 9.75Q16.4503 9.75 16.7955 9.52202Q17.1406 9.29403 17.2557 8.9233L16.7699 8.78693Q16.674 9.04261 16.4609 9.17045Q16.2479 9.2983 15.9517 9.2983Q15.5085 9.2983 15.2283 9.01918Q14.9482 8.74006 14.9311 8.21591L17.3068 8.21591L17.3068 8.00284Q17.3068 7.54474 17.1854 7.23153Q17.0639 6.91832 16.8594 6.72763Q16.6548 6.53693 16.4055 6.4517Q16.1563 6.36648 15.9006 6.36648Q15.4574 6.36648 15.1261 6.58274Q14.7947 6.79901 14.6104 7.18359Q14.4261 7.56818 14.4261 8.07102Q14.4261 8.57386 14.6104 8.95206Q14.7947 9.33026 15.1367 9.54013ZM18.5767 7.71307L18.5767 9.68182L18.0739 9.68182L18.0739 6.40909L18.5597 6.40909L18.5597 6.92045L18.6023 6.92045Q18.7173 6.67116 18.9517 6.51882Q19.1861 6.36648 19.5568 6.36648Q20.0533 6.36648 20.359 6.67116Q20.6648 6.97585 20.6648 7.60227L20.6648 9.68182L20.1619 9.68182L20.1619 7.63636Q20.1619 7.25071 19.9616 7.03445Q19.7614 6.81818 19.4119 6.81818Q19.0518 6.81818 18.8143 7.05149Q18.5767 7.2848 18.5767 7.71307ZM16.7955 7.78125L14.9311 7.78125Q14.9482 7.5277 15.0696 7.30717Q15.1911 7.08665 15.402 6.95241Q15.6129 6.81818 15.9006 6.81818Q16.3097 6.81818 16.5526 7.09197Q16.7955 7.36577 16.7955 7.78125ZM10.5067 9.18963Q10.3011 9.30682 10.0028 9.30682Q9.70241 9.30682 9.50746 9.17365Q9.3125 9.04048 9.3125 8.77841Q9.3125 8.58665 9.41584 8.47479Q9.51918 8.36293 9.68857 8.30646Q9.85795 8.25 10.054 8.22443Q10.1349 8.21378 10.266 8.1978Q10.397 8.18182 10.5366 8.15945Q10.6761 8.13707 10.7837 8.10618Q10.8913 8.07528 10.9233 8.03693L10.9233 8.49716Q10.9233 8.7017 10.8178 8.88707Q10.7124 9.07244 10.5067 9.18963Z" />
        </g>
      </g>
    </g>
    <g id="Group-2-Copy-2" transform="translate(37 138.2002)">
      <g id="Group">
        <path d="M6.999 0L21.001 0Q21.1728 0 21.3444 0.0084306Q21.516 0.0168612 21.687 0.0337021Q21.858 0.050543 22.028 0.0757536Q22.1979 0.100964 22.3664 0.134484Q22.5349 0.168003 22.7016 0.209751Q22.8683 0.251499 23.0327 0.301375Q23.1971 0.35125 23.3589 0.409133Q23.5207 0.467016 23.6794 0.532767Q23.8381 0.598518 23.9935 0.671979Q24.1488 0.74544 24.3003 0.826433Q24.4518 0.907426 24.5992 0.995757Q24.7466 1.08409 24.8894 1.17954Q25.0323 1.275 25.1703 1.37735Q25.3083 1.4797 25.4411 1.5887Q25.5739 1.6977 25.7012 1.81308Q25.8285 1.92847 25.95 2.04996Q26.0715 2.17145 26.1869 2.29876Q26.3023 2.42607 26.4113 2.55888Q26.5203 2.6917 26.6226 2.8297Q26.725 2.9677 26.8205 3.11056Q26.9159 3.25342 27.0042 3.40079Q27.0926 3.54817 27.1736 3.69969Q27.2546 3.85122 27.328 4.00654Q27.4015 4.16186 27.4672 4.3206Q27.533 4.47933 27.5909 4.64111Q27.6487 4.80288 27.6986 4.9673Q27.7485 5.13171 27.7902 5.29838Q27.832 5.46505 27.8655 5.63356Q27.899 5.80208 27.9242 5.97203Q27.9495 6.14199 27.9663 6.31298Q27.9831 6.48397 27.9916 6.65558Q28 6.82718 28 6.999L28 7.001Q28 7.17282 27.9916 7.34442Q27.9831 7.51603 27.9663 7.68702Q27.9495 7.85801 27.9242 8.02797Q27.899 8.19792 27.8655 8.36644Q27.832 8.53495 27.7902 8.70162Q27.7485 8.86829 27.6986 9.0327Q27.6487 9.19712 27.5909 9.35889Q27.533 9.52066 27.4672 9.6794Q27.4015 9.83814 27.328 9.99346Q27.2546 10.1488 27.1736 10.3003Q27.0926 10.4518 27.0042 10.5992Q26.9159 10.7466 26.8204 10.8894Q26.725 11.0323 26.6226 11.1703Q26.5203 11.3083 26.4113 11.4411Q26.3023 11.5739 26.1869 11.7012Q26.0715 11.8285 25.95 11.95Q25.8285 12.0715 25.7012 12.1869Q25.5739 12.3023 25.4411 12.4113Q25.3083 12.5203 25.1703 12.6226Q25.0323 12.725 24.8894 12.8205Q24.7466 12.9159 24.5992 13.0042Q24.4518 13.0926 24.3003 13.1736Q24.1488 13.2546 23.9935 13.328Q23.8381 13.4015 23.6794 13.4672Q23.5207 13.533 23.3589 13.5909Q23.1971 13.6487 23.0327 13.6986Q22.8683 13.7485 22.7016 13.7902Q22.5349 13.832 22.3664 13.8655Q22.1979 13.899 22.028 13.9242Q21.858 13.9495 21.687 13.9663Q21.516 13.9831 21.3444 13.9916Q21.1728 14 21.001 14L6.999 14Q6.82718 14 6.65557 13.9916Q6.48397 13.9831 6.31298 13.9663Q6.14199 13.9495 5.97203 13.9242Q5.80208 13.899 5.63356 13.8655Q5.46505 13.832 5.29838 13.7902Q5.13171 13.7485 4.9673 13.6986Q4.80288 13.6487 4.64111 13.5909Q4.47933 13.533 4.3206 13.4672Q4.16186 13.4015 4.00654 13.328Q3.85122 13.2546 3.69969 13.1736Q3.54817 13.0926 3.40079 13.0042Q3.25342 12.9159 3.11056 12.8205Q2.9677 12.725 2.8297 12.6226Q2.6917 12.5203 2.55888 12.4113Q2.42607 12.3023 2.29876 12.1869Q2.17145 12.0715 2.04996 11.95Q1.92847 11.8285 1.81308 11.7012Q1.6977 11.5739 1.5887 11.4411Q1.4797 11.3083 1.37735 11.1703Q1.275 11.0323 1.17954 10.8894Q1.08409 10.7466 0.995757 10.5992Q0.907426 10.4518 0.826433 10.3003Q0.74544 10.1488 0.671979 9.99346Q0.598518 9.83814 0.532767 9.6794Q0.467016 9.52066 0.409133 9.35889Q0.35125 9.19712 0.301375 9.0327Q0.251499 8.86829 0.209751 8.70162Q0.168003 8.53495 0.134484 8.36644Q0.100964 8.19792 0.0757536 8.02797Q0.050543 7.85801 0.0337021 7.68702Q0.0168612 7.51603 0.0084306 7.34442Q0 7.17282 0 7.001L0 6.999Q0 6.82718 0.0084306 6.65557Q0.0168612 6.48397 0.0337021 6.31298Q0.050543 6.14199 0.0757536 5.97203Q0.100964 5.80208 0.134484 5.63356Q0.168003 5.46505 0.209751 5.29838Q0.251499 5.13171 0.301375 4.9673Q0.35125 4.80288 0.409133 4.64111Q0.467016 4.47933 0.532767 4.3206Q0.598518 4.16186 0.671979 4.00654Q0.74544 3.85122 0.826433 3.69969Q0.907426 3.54817 0.995757 3.40079Q1.08409 3.25342 1.17954 3.11056Q1.275 2.9677 1.37735 2.8297Q1.4797 2.6917 1.5887 2.55888Q1.6977 2.42607 1.81308 2.29876Q1.92847 2.17145 2.04996 2.04996Q2.17145 1.92847 2.29876 1.81308Q2.42607 1.6977 2.55888 1.5887Q2.6917 1.4797 2.8297 1.37735Q2.9677 1.275 3.11056 1.17954Q3.25342 1.08409 3.40079 0.995757Q3.54817 0.907426 3.69969 0.826433Q3.85122 0.74544 4.00654 0.671979Q4.16186 0.598518 4.3206 0.532767Q4.47933 0.467016 4.64111 0.409133Q4.80288 0.35125 4.9673 0.301375Q5.13171 0.251499 5.29838 0.209751Q5.46505 0.168003 5.63356 0.134484Q5.80208 0.100964 5.97203 0.0757536Q6.14199 0.050543 6.31298 0.0337021Q6.48397 0.0168612 6.65558 0.0084306Q6.82718 0 6.999 0Z" transform="translate(0 0.49951172)" id="Rectangle-3" fill="#AFAFAF" fill-rule="evenodd" stroke="none" />
        <g id="Child" fill="#212121">
          <path d="M15.1325 5.76349Q15.2379 5.86364 15.3849 5.86364Q15.532 5.86364 15.6374 5.76349Q15.7429 5.66335 15.7429 5.52273Q15.7429 5.3821 15.6374 5.28196Q15.532 5.18182 15.3849 5.18182Q15.2379 5.18182 15.1325 5.28196Q15.027 5.3821 15.027 5.52273Q15.027 5.66335 15.1325 5.76349ZM10.7997 6.68182L10.2713 6.68182Q10.2074 6.37926 10.0263 6.17259Q9.84517 5.96591 9.58949 5.85938Q9.33381 5.75284 9.04403 5.75284Q8.64773 5.75284 8.32706 5.95313Q8.00639 6.15341 7.81783 6.54332Q7.62926 6.93324 7.62926 7.5Q7.62926 8.06676 7.81783 8.45668Q8.00639 8.84659 8.32706 9.04688Q8.64773 9.24716 9.04403 9.24716Q9.33381 9.24716 9.58949 9.14063Q9.84517 9.03409 10.0263 8.82741Q10.2074 8.62074 10.2713 8.31818L10.7997 8.31818Q10.7188 8.76563 10.4695 9.08416Q10.2202 9.4027 9.85156 9.57209Q9.48295 9.74148 9.04403 9.74148Q8.4858 9.74148 8.05114 9.46875Q7.61648 9.19602 7.36719 8.69318Q7.1179 8.19034 7.1179 7.5Q7.1179 6.80966 7.36719 6.30682Q7.61648 5.80398 8.05114 5.53125Q8.4858 5.25852 9.04403 5.25852Q9.48295 5.25852 9.85156 5.42791Q10.2202 5.5973 10.4695 5.91584Q10.7188 6.23438 10.7997 6.68182ZM12.0866 7.71307L12.0866 9.68182L11.5838 9.68182L11.5838 5.31818L12.0866 5.31818L12.0866 6.92045L12.1293 6.92045Q12.2443 6.6669 12.4755 6.51669Q12.7067 6.36648 13.0923 6.36648Q13.5952 6.36648 13.902 6.66903Q14.2088 6.97159 14.2088 7.60227L14.2088 9.68182L13.706 9.68182L13.706 7.63636Q13.706 7.24645 13.5046 7.03232Q13.3033 6.81818 12.9474 6.81818Q12.5746 6.81818 12.3306 7.05149Q12.0866 7.2848 12.0866 7.71307ZM17.0554 9.68182L16.5526 9.68182L16.5526 5.31818L17.0554 5.31818L17.0554 9.68182ZM18.4893 9.54226Q18.8026 9.75 19.2116 9.75Q19.527 9.75 19.7166 9.64453Q19.9063 9.53906 20.0085 9.40376Q20.1108 9.26847 20.1662 9.17898L20.2259 9.17898L20.2259 9.68182L20.7116 9.68182L20.7116 5.31818L20.2088 5.31818L20.2088 6.92898L20.1662 6.92898Q20.1108 6.84375 20.0117 6.71058Q19.9126 6.57741 19.7262 6.47195Q19.5398 6.36648 19.2202 6.36648Q18.8068 6.36648 18.4915 6.57315Q18.1761 6.77983 17.9993 7.15909Q17.8224 7.53835 17.8224 8.05398Q17.8224 8.57386 17.9993 8.95419Q18.1761 9.33452 18.4893 9.54226ZM15.1293 6.40909L15.1293 9.68182L15.6321 9.68182L15.6321 6.40909L15.1293 6.40909ZM19.9755 8.94993Q19.7337 9.2983 19.2798 9.2983Q18.9645 9.2983 18.7525 9.13104Q18.5405 8.96378 18.4329 8.67933Q18.3253 8.39489 18.3253 8.04545Q18.3253 7.70028 18.4308 7.42223Q18.5362 7.14418 18.7482 6.98118Q18.9602 6.81818 19.2798 6.81818Q19.7401 6.81818 19.9787 7.15696Q20.2173 7.49574 20.2173 8.04545Q20.2173 8.60156 19.9755 8.94993Z" />
        </g>
      </g>
    </g>
    <g id="Group-6" transform="matrix(-1 -2.7163633E-06 2.7163633E-06 -1 123.48413 121.1001)">
      <path d="M1 0L1 17.8089" transform="translate(1.5839844 11.190918)" id="Line" fill="none" fill-rule="evenodd" stroke="#808080" stroke-width="1" stroke-linecap="square" />
      <path d="M2.58405 0L5.16809 10.6618L0 10.6618L2.58405 0Z" id="Triangle" fill="#686868" fill-rule="evenodd" stroke="none" />
    </g>
    <g id="Group-6-Copy" transform="matrix(-1 -2.7163633E-06 2.7163633E-06 -1 53.584106 133.44434)">
      <path d="M1 0L1 7.55342" transform="translate(1.5844727 4.746582)" id="Line" fill="none" fill-rule="evenodd" stroke="#808080" stroke-width="1" stroke-linecap="square" />
      <path d="M2.58405 0L5.16809 4.52208L0 4.52208L2.58405 0Z" id="Triangle" fill="#686868" fill-rule="evenodd" stroke="none" />
    </g>
    <g id="Group-6-Copy-3" transform="matrix(1.0872702E-06 1.0000007 -1.0000007 1.0872702E-06 221.48926 119.96289)">
      <path d="M1.77398 0L1.77398 26.4041" transform="matrix(0.9999994 -1.0026456E-07 1.0026456E-07 0.9999994 2.800293 16.595337)" id="Line" fill="none" fill-rule="evenodd" stroke="#808080" stroke-width="1" stroke-linecap="square" />
      <path d="M4.58405 0L9.16809 15.8076L0 15.8076L4.58405 0Z" transform="matrix(0.9999994 -1.0026456E-07 1.0026456E-07 0.9999994 0 0)" id="Triangle" fill="#686868" fill-rule="evenodd" stroke="none" />
    </g>
    <g id="Group-6-Copy-2" transform="matrix(-1 -2.7163633E-06 2.7163633E-06 -1 53.584106 96.299805)">
      <path d="M1 0L1 7.55342" transform="translate(1.5841064 4.746582)" id="Line" fill="none" fill-rule="evenodd" stroke="#808080" stroke-width="1" stroke-linecap="square" />
      <path d="M2.58405 0L5.16809 4.52208L0 4.52208L2.58405 0Z" id="Triangle" fill="#686868" fill-rule="evenodd" stroke="none" />
    </g>
    <g id="createElement()" fill="#212121" transform="translate(128.90002 98.30029)">
      <path d="M41.6847 3.84091Q41.6847 3.03551 41.8945 2.35902Q42.1044 1.68253 42.4943 1.11364L42.9375 1.11364Q42.733 1.39489 42.5668 1.84233Q42.4006 2.28977 42.3026 2.81179Q42.2046 3.33381 42.2046 3.84091Q42.2046 4.34801 42.3026 4.87003Q42.4006 5.39205 42.5668 5.83949Q42.733 6.28693 42.9375 6.56818L42.4943 6.56818Q42.1044 5.99929 41.8945 5.3228Q41.6847 4.64631 41.6847 3.84091ZM44.543 5.3228Q44.7528 4.64631 44.7528 3.84091Q44.7528 3.03551 44.543 2.35902Q44.3331 1.68253 43.9432 1.11364L43.5 1.11364Q43.7045 1.39489 43.8707 1.84233Q44.0369 2.28977 44.1349 2.81179Q44.233 3.33381 44.233 3.84091Q44.233 4.34801 44.1349 4.87003Q44.0369 5.39205 43.8707 5.83949Q43.7045 6.28693 43.5 6.56818L43.9432 6.56818Q44.3331 5.99929 44.543 5.3228ZM18.6648 1.31818L18.6648 5.68182L21.3324 5.68182L21.3324 5.21307L19.1932 5.21307L19.1932 3.73011L21.1619 3.73011L21.1619 3.26136L19.1932 3.26136L19.1932 1.78693L21.2983 1.78693L21.2983 1.31818L18.6648 1.31818ZM22.6875 1.31818L22.6875 5.68182L22.1847 5.68182L22.1847 1.31818L22.6875 1.31818ZM14.3438 2.83523L14.3438 2.40909L13.6449 2.40909L13.6449 1.625L13.142 1.625L13.142 2.40909L12.6477 2.40909L12.6477 2.83523L13.142 2.83523L13.142 4.88068Q13.142 5.16619 13.2752 5.35369Q13.4084 5.54119 13.6119 5.63281Q13.8153 5.72443 14.0284 5.72443Q14.169 5.72443 14.2607 5.70419Q14.3523 5.68395 14.4034 5.66477L14.3011 5.21307Q14.2692 5.21946 14.2159 5.22905Q14.1626 5.23864 14.0795 5.23864Q13.9688 5.23864 13.8697 5.20348Q13.7706 5.16832 13.7077 5.06285Q13.6449 4.95739 13.6449 4.74432L13.6449 2.83523L14.3438 2.83523ZM40.7472 2.83523L40.7472 2.40909L40.0483 2.40909L40.0483 1.625L39.5455 1.625L39.5455 2.40909L39.0511 2.40909L39.0511 2.83523L39.5455 2.83523L39.5455 4.88068Q39.5455 5.16619 39.6786 5.35369Q39.8118 5.54119 40.0153 5.63281Q40.2188 5.72443 40.4318 5.72443Q40.5724 5.72443 40.6641 5.70419Q40.7557 5.68395 40.8068 5.66477L40.7045 5.21307Q40.6726 5.21946 40.6193 5.22905Q40.5661 5.23864 40.483 5.23864Q40.3722 5.23864 40.2731 5.20348Q40.174 5.16832 40.1112 5.06285Q40.0483 4.95739 40.0483 4.74432L40.0483 2.83523L40.7472 2.83523ZM3.80966 2.40909L4.29545 2.40909L4.29545 2.90341L4.32955 2.90341Q4.41903 2.66051 4.65341 2.50923Q4.88778 2.35795 5.18182 2.35795Q5.23722 2.35795 5.32031 2.36009Q5.40341 2.36222 5.44602 2.36648L5.44602 2.87784Q5.42045 2.87145 5.3299 2.8576Q5.23935 2.84375 5.1392 2.84375Q4.78125 2.84375 4.54688 3.06108Q4.3125 3.27841 4.3125 3.6108L4.3125 5.68182L3.80966 5.68182L3.80966 2.40909ZM1.78977 5.75Q1.32955 5.75 0.997159 5.53267Q0.664773 5.31534 0.485795 4.93395Q0.306818 4.55256 0.306818 4.0625Q0.306818 3.56392 0.491122 3.18146Q0.675426 2.79901 1.00675 2.58274Q1.33807 2.36648 1.78125 2.36648Q2.12642 2.36648 2.40341 2.49432Q2.6804 2.62216 2.85724 2.85227Q3.03409 3.08239 3.0767 3.3892L2.57386 3.3892Q2.51634 3.16548 2.31925 2.99183Q2.12216 2.81818 1.78977 2.81818Q1.34872 2.81818 1.07919 3.15376Q0.809659 3.48935 0.809659 4.04545Q0.809659 4.61435 1.07599 4.95632Q1.34233 5.2983 1.78977 5.2983Q2.08381 5.2983 2.29368 5.14702Q2.50355 4.99574 2.57386 4.72727L3.0767 4.72727Q3.03409 5.01705 2.86683 5.24822Q2.69957 5.4794 2.42578 5.6147Q2.15199 5.75 1.78977 5.75ZM6.59979 5.54013Q6.94176 5.75 7.41477 5.75Q7.91335 5.75 8.25852 5.52202Q8.60369 5.29403 8.71875 4.9233L8.23295 4.78693Q8.13707 5.04261 7.92401 5.17045Q7.71094 5.2983 7.41477 5.2983Q6.97159 5.2983 6.69141 5.01918Q6.41122 4.74006 6.39418 4.21591L8.76989 4.21591L8.76989 4.00284Q8.76989 3.54474 8.64844 3.23153Q8.52699 2.91832 8.32244 2.72763Q8.1179 2.53693 7.86861 2.4517Q7.61932 2.36648 7.36364 2.36648Q6.92045 2.36648 6.58913 2.58274Q6.25781 2.79901 6.07351 3.18359Q5.8892 3.56818 5.8892 4.07102Q5.8892 4.57386 6.07351 4.95206Q6.25781 5.33026 6.59979 5.54013ZM10.5 5.75852Q10.1889 5.75852 9.93537 5.64027Q9.68182 5.52202 9.53267 5.29723Q9.38352 5.07244 9.38352 4.75284Q9.38352 4.47159 9.49432 4.29581Q9.60511 4.12003 9.79048 4.01989Q9.97585 3.91974 10.2006 3.86967Q10.4254 3.8196 10.6534 3.78977Q10.9517 3.75142 11.1381 3.73118Q11.3246 3.71094 11.4109 3.66193Q11.4972 3.61293 11.4972 3.49148L11.4972 3.47443Q11.4972 3.15909 11.3256 2.98437Q11.1541 2.80966 10.8068 2.80966Q10.4467 2.80966 10.2422 2.96733Q10.0376 3.125 9.95455 3.30398L9.47727 3.13352Q9.60511 2.83523 9.81925 2.66797Q10.0334 2.50071 10.288 2.43359Q10.5426 2.36648 10.7898 2.36648Q10.9474 2.36648 11.1531 2.40376Q11.3587 2.44105 11.5515 2.55611Q11.7443 2.67116 11.8722 2.90341Q12 3.13565 12 3.52557L12 5.68182L11.4972 5.68182L11.4972 5.23864L11.4716 5.23864Q11.4205 5.34517 11.3011 5.46662Q11.1818 5.58807 10.9837 5.6733Q10.7855 5.75852 10.5 5.75852ZM16.4744 5.75Q16.0014 5.75 15.6594 5.54013Q15.3175 5.33026 15.1332 4.95206Q14.9489 4.57386 14.9489 4.07102Q14.9489 3.56818 15.1332 3.18359Q15.3175 2.79901 15.6488 2.58274Q15.9801 2.36648 16.4233 2.36648Q16.679 2.36648 16.9283 2.4517Q17.1776 2.53693 17.3821 2.72763Q17.5866 2.91832 17.7081 3.23153Q17.8295 3.54474 17.8295 4.00284L17.8295 4.21591L15.4538 4.21591Q15.4709 4.74006 15.7511 5.01918Q16.0313 5.2983 16.4744 5.2983Q16.7706 5.2983 16.9837 5.17045Q17.1967 5.04261 17.2926 4.78693L17.7784 4.9233Q17.6634 5.29403 17.3182 5.52202Q16.973 5.75 16.4744 5.75ZM24.1651 5.54013Q24.5071 5.75 24.9801 5.75Q25.4787 5.75 25.8239 5.52202Q26.169 5.29403 26.2841 4.9233L25.7983 4.78693Q25.7024 5.04261 25.4893 5.17045Q25.2763 5.2983 24.9801 5.2983Q24.5369 5.2983 24.2567 5.01918Q23.9766 4.74006 23.9595 4.21591L26.3352 4.21591L26.3352 4.00284Q26.3352 3.54474 26.2138 3.23153Q26.0923 2.91832 25.8878 2.72763Q25.6832 2.53693 25.4339 2.4517Q25.1847 2.36648 24.929 2.36648Q24.4858 2.36648 24.1545 2.58274Q23.8232 2.79901 23.6388 3.18359Q23.4545 3.56818 23.4545 4.07102Q23.4545 4.57386 23.6388 4.95206Q23.8232 5.33026 24.1651 5.54013ZM27.1023 2.40909L27.5881 2.40909L27.5881 2.92045L27.6307 2.92045Q27.733 2.65838 27.9609 2.51243Q28.1889 2.36648 28.5085 2.36648Q28.8324 2.36648 29.0487 2.51243Q29.2649 2.65838 29.3864 2.92045L29.4205 2.92045Q29.5462 2.6669 29.7976 2.51669Q30.049 2.36648 30.4006 2.36648Q30.8395 2.36648 31.1186 2.64027Q31.3977 2.91406 31.3977 3.49148L31.3977 5.68182L30.8949 5.68182L30.8949 3.49148Q30.8949 3.12926 30.6967 2.97372Q30.4986 2.81818 30.2301 2.81818Q29.8849 2.81818 29.6953 3.02592Q29.5057 3.23366 29.5057 3.55114L29.5057 5.68182L28.9943 5.68182L28.9943 3.44034Q28.9943 3.16122 28.8132 2.9897Q28.6321 2.81818 28.3466 2.81818Q28.1506 2.81818 27.9812 2.92259Q27.8118 3.02699 27.7085 3.21129Q27.6051 3.3956 27.6051 3.63636L27.6051 5.68182L27.1023 5.68182L27.1023 2.40909ZM32.8754 5.54013Q33.2173 5.75 33.6903 5.75Q34.1889 5.75 34.5341 5.52202Q34.8793 5.29403 34.9943 4.9233L34.5085 4.78693Q34.4126 5.04261 34.1996 5.17045Q33.9865 5.2983 33.6903 5.2983Q33.2472 5.2983 32.967 5.01918Q32.6868 4.74006 32.6697 4.21591L35.0455 4.21591L35.0455 4.00284Q35.0455 3.54474 34.924 3.23153Q34.8026 2.91832 34.598 2.72763Q34.3935 2.53693 34.1442 2.4517Q33.8949 2.36648 33.6392 2.36648Q33.196 2.36648 32.8647 2.58274Q32.5334 2.79901 32.3491 3.18359Q32.1648 3.56818 32.1648 4.07102Q32.1648 4.57386 32.3491 4.95206Q32.5334 5.33026 32.8754 5.54013ZM36.3153 3.71307L36.3153 5.68182L35.8125 5.68182L35.8125 2.40909L36.2983 2.40909L36.2983 2.92045L36.3409 2.92045Q36.456 2.67116 36.6903 2.51882Q36.9247 2.36648 37.2955 2.36648Q37.7919 2.36648 38.0977 2.67116Q38.4034 2.97585 38.4034 3.60227L38.4034 5.68182L37.9006 5.68182L37.9006 3.63636Q37.9006 3.25071 37.7003 3.03445Q37.5 2.81818 37.1506 2.81818Q36.7905 2.81818 36.5529 3.05149Q36.3153 3.2848 36.3153 3.71307ZM8.25852 3.78125L6.39418 3.78125Q6.41122 3.5277 6.53267 3.30717Q6.65412 3.08665 6.86506 2.95241Q7.07599 2.81818 7.36364 2.81818Q7.77273 2.81818 8.01563 3.09197Q8.25852 3.36577 8.25852 3.78125ZM15.4538 3.78125L17.3182 3.78125Q17.3182 3.36577 17.0753 3.09197Q16.8324 2.81818 16.4233 2.81818Q16.1357 2.81818 15.9247 2.95241Q15.7138 3.08665 15.5923 3.30717Q15.4709 3.5277 15.4538 3.78125ZM25.8239 3.78125L23.9595 3.78125Q23.9766 3.5277 24.098 3.30717Q24.2195 3.08665 24.4304 2.95241Q24.6413 2.81818 24.929 2.81818Q25.3381 2.81818 25.581 3.09197Q25.8239 3.36577 25.8239 3.78125ZM34.5341 3.78125L32.6697 3.78125Q32.6868 3.5277 32.8082 3.30717Q32.9297 3.08665 33.1406 2.95241Q33.3516 2.81818 33.6392 2.81818Q34.0483 2.81818 34.2912 3.09197Q34.5341 3.36577 34.5341 3.78125ZM10.5767 5.30682Q10.875 5.30682 11.0806 5.18963Q11.2862 5.07244 11.3917 4.88707Q11.4972 4.7017 11.4972 4.49716L11.4972 4.03693Q11.4652 4.07528 11.3576 4.10618Q11.25 4.13707 11.1104 4.15945Q10.9709 4.18182 10.8398 4.1978Q10.7088 4.21378 10.6278 4.22443Q10.4318 4.25 10.2624 4.30646Q10.093 4.36293 9.9897 4.47479Q9.88636 4.58665 9.88636 4.77841Q9.88636 5.04048 10.0813 5.17365Q10.2763 5.30682 10.5767 5.30682Z" />
    </g>
  </g>
</svg>